<svg width="88" height="88" viewBox="0 0 88 88" fill="none" xmlns="http://www.w3.org/2000/svg">
  <path fill-rule="evenodd" clip-rule="evenodd"
    d="M54.044 38.7532H63.3989L63.1958 39.5479L60.0715 40.1291L57.624 40.9188L55.7067 41.8719L54.2917 42.915L53.4175 44.0375L53.0108 45.1154L52.9661 46.1572L53.3436 47.0662L54.044 47.8603L55.0417 48.4024L56.2481 48.6905L57.7035 48.6507L59.3668 48.2329L61.1097 47.3543L62.9822 46.0331L63.9359 45.1545L64.894 44.1611L65.0628 44.9012L65.0181 45.7009L64.5214 47.196L62.3216 48.5265L59.9033 49.7329L57.2912 50.7263L54.4606 51.5602L51.471 52.1407L48.2629 52.3897L44.9014 52.3456L41.3208 51.9327L54.044 38.7532ZM21.0755 40.0837L21.9292 39.7621L23.6975 40.6251L25.5248 40.6009L25.7235 40.6109L25.8924 40.6456L26.0358 40.7052L26.1656 40.7841L26.2897 40.8884L26.404 41.0076L26.6623 41.3063L27.7296 42.4971L29.3532 44.1164L30.888 45.3681L32.3428 46.282L33.7981 46.9023L35.1684 47.2351L36.5039 47.2798L37.8301 47.0662L39.1607 46.6148L40.5366 45.9486L41.8622 45.1154L43.2778 44.1164L49.5593 38.8382H52.5042L39.7816 51.8532L35.2976 50.1402L33.1716 49.2263L31.0122 48.149L28.8124 46.7334L26.4387 45.0353L23.8614 42.8305L21.0755 40.0837ZM52.1515 25.0726L50.9004 25.1465L50.8209 24.9739L50.7613 24.9137L50.6918 24.8597L50.5378 24.7895L50.3342 24.7653L50.1752 24.7945L50.0262 24.8491L49.907 24.9385L49.8077 25.0577L49.7332 25.2067L49.6785 25.3856L49.6493 25.5942L49.6444 25.8369L49.8921 25.6929L50.1504 25.5892L50.423 25.524L50.7166 25.5048L51.0488 25.5445L51.3419 25.6234L51.5952 25.7482L51.715 25.8276L51.8088 25.9114L51.9025 26.0114L51.9876 26.1201L52.1211 26.369L52.221 26.6515L52.2757 26.9843L52.2359 27.3469L52.1962 27.5002L52.1416 27.6592L52.082 27.7939L51.9975 27.9274L51.9025 28.0423L51.7939 28.141L51.6697 28.2409L51.5356 28.3204L51.2227 28.4446L50.8607 28.534L50.4385 28.5682L50.1802 28.5588L49.9318 28.5284L49.6984 28.4787L49.4848 28.4092L49.2961 28.3304L49.1129 28.226L48.9583 28.1012L48.8093 27.9678L48.6857 27.8094L48.5715 27.6399L48.4765 27.4462L48.4026 27.2376L48.348 27.0091L48.3033 26.7608L48.2728 26.4976L48.2629 26.2194L48.2884 25.9419L48.3175 25.6885L48.3629 25.4452L48.4218 25.2216L48.4963 25.0081L48.5858 24.8193L48.6901 24.6455L48.8093 24.4921L48.949 24.3474L49.0924 24.2288L49.2569 24.1196L49.4302 24.0295L49.6239 23.9606L49.8275 23.906L50.051 23.8656L50.2845 23.8464L50.667 23.8706L51.0041 23.9302L51.3021 24.0295L51.5555 24.1643L51.6647 24.2431L51.774 24.3375L51.8578 24.4375L51.9379 24.5467L52.072 24.7895L52.1515 25.0726ZM50.3342 26.3988L50.4677 26.4187L50.572 26.4529L50.6713 26.5075L50.7508 26.5727L50.8209 26.6615L50.8657 26.7608L50.9048 26.8701L50.9253 27.0091L50.9104 27.1532L50.875 27.2873L50.8309 27.4015L50.7564 27.4866L50.6713 27.5605L50.567 27.6095L50.4484 27.6399L50.3087 27.6499L50.1802 27.63L50.061 27.5903L49.9616 27.5406L49.8822 27.4661L49.8077 27.3872L49.753 27.2829L49.7183 27.1631L49.6984 27.0339L49.7083 26.885L49.7381 26.7658L49.7878 26.6571L49.8623 26.5621L49.9467 26.4976L50.056 26.4429L50.1895 26.4131L50.3342 26.3988ZM45.6067 25.1465V26.5423H44.5096L45.6067 25.1465ZM43.4616 27.5462V26.4733L45.6316 23.9203H46.8876V26.5423H47.4731V27.5462H46.8876V28.5185H45.6067V27.5462H43.4616ZM38.808 27.3916L40.0647 27.3177L40.1442 27.476L40.2038 27.5462L40.2733 27.5958L40.4273 27.6592L40.626 27.6747L40.7893 27.6592L40.9333 27.6095L41.0476 27.5207L41.1519 27.4114L41.232 27.2674L41.2866 27.0836L41.3264 26.8651L41.3413 26.6273L41.083 26.7807L40.8098 26.885L40.5366 26.9445L40.2485 26.9601L39.9101 26.9247L39.6127 26.8403L39.3544 26.7267L39.2408 26.6515L39.1365 26.5572L39.0471 26.4634L38.962 26.3591L38.8285 26.1101L38.7385 25.8177L38.6888 25.4799L38.6988 25.2868L38.7242 25.1124L38.7584 24.9484L38.808 24.7945L38.8782 24.651L38.9571 24.5213L39.0564 24.3921L39.1607 24.2928L39.2898 24.1935L39.424 24.1047L39.5786 24.0345L39.7419 23.9749L40.1187 23.8861L40.5558 23.8464L40.8048 23.8557L41.0476 23.8861L41.2711 23.9352L41.4847 24.0053L41.6691 24.0842L41.8473 24.1935L42.0013 24.3176L42.1503 24.4567L42.2695 24.6157L42.3781 24.7945L42.4781 24.9882L42.5526 25.2067L42.6122 25.4402L42.6569 25.6885L42.6818 25.9568L42.701 26.2449L42.6768 26.5174L42.647 26.7757L42.6023 27.019L42.5371 27.2426L42.4682 27.4462L42.3738 27.635L42.2695 27.8038L42.1552 27.9628L42.0162 28.0919L41.8721 28.2161L41.7082 28.3204L41.5344 28.3999L41.3413 28.4738L41.1326 28.5234L40.9191 28.5539L40.6757 28.5682L40.2932 28.5439L39.9505 28.4837L39.6524 28.385L39.3942 28.2608L39.2849 28.1863L39.1806 28.0919L39.0912 28.0025L39.0167 27.8982L38.8875 27.6648L38.808 27.3916ZM40.626 26.0704L40.4962 26.0505L40.387 26.0213L40.2975 25.9661L40.2237 25.9015L40.1541 25.8177L40.11 25.7134L40.074 25.5892L40.0647 25.4557L40.0691 25.3055L40.0995 25.1825L40.1442 25.0782L40.2088 24.9832L40.2975 24.9186L40.3919 24.864L40.5118 24.8292L40.6508 24.8143L40.7849 24.8441L40.9042 24.8789L40.9979 24.9335L41.0873 24.9981L41.1575 25.0832L41.2419 25.2812L41.2661 25.4054L41.2463 25.5544L41.222 25.683L41.1668 25.7972L41.0923 25.8872L41.0035 25.9568L40.8992 26.0158L40.7694 26.0505L40.626 26.0704ZM36.8218 23.8464V28.5185H35.4608V25.8369H34.3935V24.8938L34.6816 24.8839L34.9294 24.8342L35.1479 24.7554L35.3472 24.6411L35.4267 24.571L35.5012 24.4971L35.6353 24.3133L35.7291 24.0891L35.7936 23.8464H36.8218ZM56.2034 51.9731L57.6637 51.5205L57.6432 52.1867L57.5886 52.8411L57.5048 53.4868L57.3856 54.122L57.2366 54.7484L57.0577 55.3637L56.8442 55.9654L56.6014 56.5509L56.3332 57.1221L56.0345 57.6834L55.7117 58.2198L55.3646 58.7507L54.9921 59.248L54.5891 59.7292L54.1675 60.206L53.7255 60.6524L53.2635 61.0846L52.7718 61.4925L52.2657 61.8744L51.7442 62.232L51.1984 62.5697L50.6365 62.8827L50.056 63.1658L49.4649 63.4291L48.854 63.6619L48.2337 63.8655L47.5979 64.0394L46.9522 64.1878L46.2916 64.3026L45.6216 64.3821L44.9505 64.4268L44.2607 64.4473L43.5702 64.4268L42.8904 64.3821L42.2198 64.3026L41.5598 64.1878L40.9191 64.0394L40.2826 63.8655L39.6624 63.6619L39.0514 63.4291L38.456 63.1658L37.8748 62.8827L37.3136 62.5697L36.7722 62.232L36.2512 61.8744L35.7396 61.4925L35.2578 61.0846L34.7859 60.6524L34.3488 60.206L33.9217 59.7292L33.5249 59.248L33.1524 58.7507L32.8047 58.2198L32.4818 57.6834L32.1838 57.1221L31.9156 56.5509L31.6672 55.9654L31.4586 55.3637L31.2804 54.7484L31.1258 54.122L31.0072 53.4868L30.9278 52.8411L30.8725 52.1867L30.8526 51.5205V48.7693L32.2838 49.5491V51.5006L32.3428 52.6927L32.5265 53.8246L32.8246 54.9223L33.2163 55.9753L33.7236 56.9731L34.324 57.9261L35.0095 58.8109L35.7794 59.6305L36.6287 60.3699L37.552 61.0399L38.5404 61.6161L39.5879 62.1078L40.6906 62.5002L41.8423 62.7883L43.0344 62.9615L44.2607 63.0211L45.4819 62.9615L46.674 62.7883L47.8214 62.5002L48.9285 62.1078L49.9716 61.6161L50.9594 61.0399L51.8839 60.3699L52.7327 59.6305L53.5075 58.8109L54.1979 57.9261L54.794 56.9731L55.2951 55.9753L55.6974 54.9223L55.9898 53.8246L56.1686 52.6927L56.2034 51.9731ZM56.2289 42.4679L57.6637 41.6484V47.91L56.2289 48.064V42.4679ZM57.6637 38.3515H56.2289V31.1163H44.9263L44.9455 42.0358L43.4318 43.2527V31.1163H32.2838V45.6413L30.8526 44.6975V29.6857H57.6637V38.3515ZM43.4318 52.9162L44.9263 53.1944V56.9135H43.4318V52.9162ZM44.0024 19.8584L43.3821 19.8684L42.7662 19.8888L42.1503 19.928L41.5393 19.9832L40.9333 20.0478L40.328 20.1366L39.7319 20.2359L39.1415 20.3452L37.9742 20.6234L36.8367 20.9413L35.7098 21.3287L34.6121 21.7608L33.5442 22.2426L32.5067 22.7834L31.489 23.3646L31.0023 23.6725L30.5105 23.9954L30.0386 24.3226L29.5624 24.6604L29.1048 25.018L28.6485 25.3856L28.2064 25.7631L27.7743 26.1455L27.3471 26.533L26.9404 26.9396L26.5275 27.3568L26.1358 27.774L25.7483 28.2161L25.3758 28.6582L25.0138 29.1096L24.6556 29.5715L24.3135 30.0384L23.9807 30.5202L23.6628 31.0064L23.3498 31.4938L22.7681 32.5114L22.2366 33.5489L21.7504 34.6174L21.3189 35.7139L20.9365 36.8315L20.6086 37.9839L20.3404 39.1512L20.2262 39.7416L20.1318 40.3377L20.0473 40.9387L19.9735 41.5441L19.9188 42.155L19.8785 42.7653L19.8542 43.3868L19.8437 44.0071L19.8542 44.628L19.8785 45.2439L19.9188 45.8598L19.9735 46.4702L20.0473 47.0712L20.1318 47.6722L20.2262 48.2683L20.3404 48.8643L20.6086 50.031L20.9365 51.1728L21.3189 52.291L21.7504 53.393L22.2366 54.4554L22.7681 55.5034L23.3498 56.5167L23.6628 57.0035L23.9807 57.4946L24.3135 57.9715L24.6556 58.4433L25.0138 58.9047L25.3758 59.3467L25.7483 59.7838L26.1358 60.2203L26.5275 60.6481L26.9404 61.0604L27.3471 61.4671L27.7743 61.865L28.2064 62.2419L28.6485 62.6244L29.1048 62.987L29.5624 63.339L30.0386 63.6818L30.5105 64.0152L31.0023 64.338L31.489 64.6454L32.5067 65.2259L34.6121 66.2442L35.7098 66.6813L36.8367 67.0588L37.9742 67.3866L39.1415 67.6548L39.7319 67.769L40.328 67.8684L40.9333 67.9522L41.5393 68.0224L42.1503 68.077L42.7662 68.1112L43.3821 68.1366L44.0024 68.1465L44.6233 68.1366L45.2441 68.1112L45.8594 68.077L46.4654 68.0224L47.0714 67.9522L47.6718 67.8684L48.2629 67.769L48.854 67.6548L50.0212 67.3866L51.173 67.0588L52.2906 66.6813L53.3833 66.2442L54.4556 65.7623L55.4981 65.2259L56.507 64.6454L57.0081 64.338L57.4849 64.0152L57.9711 63.6818L58.4336 63.339L58.8999 62.987L59.3476 62.6244L59.794 62.2419L60.2261 61.865L60.6477 61.4671L61.0699 61.0604L61.4673 60.6481L61.8653 60.2203L62.2521 59.7838L62.6296 59.3467L62.9872 58.9047L63.3448 58.4433L63.6869 57.9715L64.0148 57.4946L64.3376 57.0035L64.6456 56.5167L65.2267 55.5034L65.7632 54.4554L66.25 53.393L66.6858 52.291L67.0633 51.1728L67.3862 50.031L67.6594 48.8643L67.7736 48.2683L67.8779 47.6722L67.958 47.0712L68.0269 46.4702L68.0816 45.8598L68.1219 45.2439L68.1412 44.628L68.1561 44.0071L68.1412 43.3868L68.1219 42.7653L68.0816 42.155L68.0269 41.5441L67.958 40.9387L67.8779 40.3377L67.7736 39.7416L67.6594 39.1512L67.3862 37.9839L67.0633 36.8315L66.6858 35.7139L66.25 34.6174L65.7632 33.5489L65.2267 32.5114L64.6456 31.4938L64.3376 31.0064L64.0148 30.5202L63.6869 30.0384L63.3448 29.5715L62.9872 29.1096L62.6296 28.6582L62.2521 28.2161L61.8653 27.774L61.4673 27.3568L61.0699 26.9396L60.6477 26.533L60.2261 26.1455L59.794 25.7631L59.3476 25.3856L58.8999 25.018L58.4336 24.6604L57.9711 24.3226L57.4849 23.9954L57.0081 23.6725L56.507 23.3646L55.4981 22.7834L54.4556 22.2426L53.3833 21.7608L52.2906 21.3287L51.173 20.9413L50.0212 20.6234L48.854 20.3452L48.2629 20.2359L47.6718 20.1366L47.0714 20.0478L46.4654 19.9832L45.8594 19.928L45.2441 19.8888L44.6233 19.8684L44.0024 19.8584ZM44.0024 17.758L43.3275 17.7679L42.6513 17.7927L41.9814 17.8325L41.3208 17.8871L40.6601 17.9709L40.0101 18.061L39.3644 18.1653L38.7242 18.2938L38.0878 18.4335L37.4576 18.5875L36.8318 18.7564L36.2109 18.9395L35.6005 19.1388L34.9946 19.3567L33.7981 19.8292L32.6358 20.3502L31.5033 20.9363L30.9526 21.2436L30.4012 21.5615L29.8648 21.8993L29.3383 22.2476L28.8217 22.6145L28.3107 22.9871L27.814 23.3702L27.3179 23.7613L26.8361 24.1742L26.3636 24.5908L25.9017 25.018L25.4497 25.465L25.0138 25.9071L24.5811 26.3734L24.1638 26.8353L23.7515 27.322L23.3591 27.8094L22.9723 28.3148L22.6042 28.8271L22.2422 29.3381L21.8895 29.8745L21.5567 30.4103L21.2339 30.9567L20.9216 31.5037L20.3404 32.6399L19.8189 33.8028L19.342 34.9949L19.1334 35.6003L18.9297 36.2113L18.7466 36.8259L18.5777 37.4524L18.4188 38.0882L18.2791 38.729L18.1555 39.3697L18.0512 40.0204L17.9618 40.6705L17.8879 41.3305L17.8227 41.9911L17.778 42.6567L17.7532 43.3272L17.7482 44.0071L17.778 45.3526L17.8227 46.0237L17.8879 46.6838L17.9618 47.3394L18.0512 47.9901L18.1555 48.6458L18.2791 49.2865L18.4188 49.9217L18.5777 50.5525L18.7466 51.1777L18.9297 51.7992L19.1334 52.4089L19.342 53.0155L19.8189 54.2021L20.3404 55.3693L20.9216 56.5012L21.2339 57.0575L21.5567 57.5989L21.8895 58.1397L22.2422 58.6669L22.6042 59.1778L22.9723 59.6888L23.3591 60.1862L23.7515 60.6729L24.1638 61.1591L24.5811 61.626L25.0138 62.0929L25.4497 62.5399L25.9017 62.987L26.3636 63.4135L26.8361 63.8357L27.3179 64.243L27.814 64.6354L28.3107 65.0179L28.8217 65.3954L29.3383 65.7574L29.8648 66.1057L30.4012 66.4379L30.9526 66.7607L31.5033 67.0743L32.6358 67.6548L33.7981 68.1807L34.9946 68.6526L35.6005 68.8662L36.2109 69.0599L36.8318 69.2486L37.4576 69.4225L38.0878 69.5764L38.7242 69.7099L39.3644 69.8397L40.0101 69.944L40.6601 70.0328L41.3208 70.1129L41.9814 70.1725L42.6513 70.2172L43.3275 70.2414L44.0024 70.2513L44.6723 70.2414L45.3485 70.2172L46.0134 70.1725L46.674 70.1129L47.3347 70.0328L47.9947 69.944L48.6404 69.8397L49.2811 69.7099L49.9213 69.5764L50.5527 69.4225L51.173 69.2486L51.7939 69.0599L52.4098 68.8662L53.0158 68.6526L54.2073 68.1807L55.3646 67.6548L56.4971 67.0743L57.0528 66.7607L57.5992 66.4379L58.1306 66.1057L58.6615 65.7574L59.1837 65.3954L59.6897 65.0179L60.1914 64.6354L60.6831 64.243L61.1649 63.8357L61.6411 63.4135L62.0981 62.987L62.5501 62.5399L62.9872 62.0929L63.4193 61.626L63.8415 61.1591L64.2433 60.6729L64.6406 60.1862L65.0231 59.6888L65.4012 59.1778L65.7632 58.6669L66.1053 58.1397L66.4431 57.5989L66.7659 57.0575L67.0739 56.5012L67.6544 55.3693L68.1859 54.2021L68.6534 53.0155L68.8664 52.4089L69.07 51.7992L69.2544 51.1777L69.4277 50.5525L69.5773 49.9217L69.7207 49.2865L69.8399 48.6458L69.9492 47.9901L70.0436 47.3394L70.1175 46.6838L70.1721 46.0237L70.2174 45.3526L70.2416 44.6826L70.2522 44.0071L70.2416 43.3272L70.2174 42.6567L70.1721 41.9911L70.1175 41.3305L70.0436 40.6705L69.9492 40.0204L69.8399 39.3697L69.7207 38.729L69.5773 38.0882L69.4277 37.4524L69.2544 36.8259L69.07 36.2113L68.8664 35.6003L68.6534 34.9949L68.1859 33.8028L67.6544 32.6399L67.0739 31.5037L66.7659 30.9567L66.4431 30.4103L66.1053 29.8745L65.7632 29.3381L65.4012 28.8271L65.0231 28.3148L64.6406 27.8094L64.2433 27.322L63.8415 26.8353L63.4193 26.3734L62.9872 25.9071L62.5501 25.465L62.0981 25.018L61.6411 24.5908L61.1649 24.1742L60.6831 23.7613L60.1914 23.3702L59.6897 22.9871L59.1837 22.6145L58.6615 22.2476L58.1306 21.8993L57.5992 21.5615L57.0528 21.2436L56.4971 20.9363L55.3646 20.3502L54.2073 19.8292L53.0158 19.3567L52.4098 19.1388L51.7939 18.9395L51.173 18.7564L50.5527 18.5875L49.9213 18.4335L49.2811 18.2938L48.6404 18.1653L47.9947 18.061L47.3347 17.9709L46.674 17.8871L46.0134 17.8325L45.3485 17.7927L44.6723 17.7679L44.0024 17.758ZM44.0024 3.24289L42.95 3.25779L41.9069 3.29753L40.8737 3.36707L39.8412 3.46144L38.8186 3.5701L37.8103 3.71911L36.8013 3.88302L35.7986 4.07736L34.8108 4.29591L33.8323 4.52874L32.8643 4.79697L31.9063 5.08506L30.9526 5.39798L30.0138 5.72581L29.08 6.07848L28.1617 6.46032L27.2533 6.85769L26.3537 7.27989L25.4702 7.71762L24.596 8.17893L23.7366 8.66074L22.8929 9.15745L22.054 9.68334L21.2339 10.2248L20.4348 10.7867L19.6357 11.3566L18.8602 11.9583L18.0959 12.5686L17.3465 13.2044L16.6157 13.8545L15.8961 14.5256L15.1957 15.2105L14.5202 15.9108L13.8503 16.6211L13.1946 17.3606L12.5638 18.1057L11.9479 18.8706L11.3568 19.6498L10.7756 20.4396L10.215 21.2436L9.67358 22.0682L9.15265 22.9026L8.65532 23.7421L8.16917 24.6051L7.7122 25.4799L7.26516 26.3641L6.84358 27.2575L6.45056 28.1664L6.06809 29.0854L5.71605 30.0136L5.38325 30.9567L5.07529 31.9054L4.7872 32.869L4.52891 33.8376L4.28615 34.8211L4.06759 35.8083L3.87326 36.8017L3.70438 37.815L3.44609 39.8509L3.3573 40.8791L3.29273 41.9116L3.24802 42.9597L3.23312 44.0071L3.24802 45.0552L3.29273 46.0927L3.3573 47.1358L3.44609 48.1639L3.56592 49.1822L3.70438 50.2004L3.87326 51.2081L4.06759 52.2059L4.28615 53.1944L4.52891 54.1679L4.7872 55.1402L5.07529 56.1038L5.38325 57.0575L5.71605 57.9957L6.06809 58.9301L6.45056 59.8385L6.84358 60.7474L7.26516 61.6359L7.7122 62.5201L8.16917 63.3986L8.65532 64.2579L9.15265 65.1067L9.67358 65.9368L10.215 66.7607L10.7756 67.5648L11.3568 68.3601L11.9479 69.1393L12.5638 69.8993L13.1946 70.6437L13.8503 71.3789L14.5202 72.0997L15.1957 72.7945L15.8961 73.4793L16.6157 74.1499L17.3465 74.8L18.0959 75.4314L18.8602 76.0467L19.6357 76.6428L20.4348 77.2239L21.2339 77.7752L22.054 78.3216L22.8929 78.8426L23.7366 79.3393L24.596 79.8254L25.4702 80.288L26.3537 80.73L27.2533 81.1473L28.1617 81.549L29.08 81.9265L30.0138 82.2792L30.9526 82.6113L31.9063 82.9249L32.8643 83.2074L33.8323 83.47L34.8108 83.714L35.7986 83.9276L36.8013 84.1213L37.8103 84.2852L38.8186 84.4287L39.8412 84.5479L40.8737 84.6435L41.9069 84.7074L42.95 84.7478L44.0024 84.7615L45.0498 84.7478L46.0929 84.7074L47.1316 84.6435L48.1536 84.5479L49.1768 84.4287L50.1945 84.2852L51.1984 84.1213L52.1962 83.9276L53.1847 83.714L54.1675 83.47L55.1411 83.2074L56.1041 82.9249L57.0528 82.6113L57.9965 82.2792L58.9248 81.9265L59.8437 81.549L60.752 81.1473L61.6517 80.73L62.5296 80.288L63.4044 79.8254L64.2631 79.3393L65.1125 78.8426L65.9414 78.3216L66.761 77.7752L67.5749 77.2239L68.3597 76.6428L69.1445 76.0467L69.9039 75.4314L70.6539 74.8L71.3841 74.1499L72.0944 73.4793L72.7991 72.7945L73.4852 72.0997L74.1452 71.3789L74.7958 70.6437L75.431 69.8993L76.0426 69.1393L76.643 68.3601L77.2241 67.5648L77.7848 66.7607L78.3212 65.9368L78.8434 65.1067L79.3494 64.2579L79.8256 63.3986L80.2926 62.5201L80.7247 61.6359L81.1475 60.7474L81.5492 59.8385L81.9218 58.9301L82.2794 57.9957L82.6116 57.0575L82.9195 56.1038L83.2076 55.1402L83.4709 54.1679L83.7149 53.1944L83.9278 52.2059L84.1166 51.2081L84.2904 50.2004L84.4289 49.1822L84.5487 48.1639L84.6431 47.1358L84.7021 46.0927L84.7418 45.0552L84.7573 44.0071L84.7418 42.9597L84.7021 41.9116L84.6431 40.8791L84.5487 39.8509L84.4289 38.8283L84.2904 37.815L84.1166 36.8017L83.9278 35.8083L83.7149 34.8211L83.4709 33.8376L83.2076 32.869L82.9195 31.9054L82.6116 30.9567L82.2794 30.0136L81.9218 29.0854L81.5492 28.1664L81.1475 27.2575L80.7247 26.3641L80.2926 25.4799L79.8256 24.6051L79.3494 23.7421L78.8434 22.9026L78.3212 22.0682L77.7848 21.2436L77.2241 20.4396L76.643 19.6498L76.0426 18.8706L75.431 18.1057L74.7958 17.3606L74.1452 16.6211L73.4852 15.9108L72.7991 15.2105L72.0944 14.5256L71.3841 13.8545L70.6539 13.2044L69.9039 12.5686L69.1445 11.9583L68.3597 11.3566L67.5749 10.7867L66.761 10.2248L65.9414 9.68334L65.1125 9.15745L64.2631 8.66074L63.4044 8.17893L62.5296 7.71762L61.6517 7.27989L60.752 6.85769L59.8437 6.46032L58.9248 6.07848L57.9965 5.72581L57.0528 5.39798L56.1041 5.08506L55.1411 4.79697L54.1675 4.52874L53.1847 4.29591L52.1962 4.07736L51.1984 3.88302L50.1945 3.71911L49.1768 3.5701L48.1536 3.46144L47.1316 3.36707L46.0929 3.29753L45.0498 3.25779L44.0024 3.24289ZM44.0024 0L42.8655 0.0149013L41.738 0.060226L40.6204 0.129144L39.5084 0.229107L38.4107 0.35763L37.3136 0.506022L36.2314 0.690425L35.1479 0.899043L34.0856 1.12753L33.0232 1.3852L31.9758 1.67888L30.9427 1.98684L29.9095 2.31466L28.8912 2.67664L27.8935 3.06469L26.9001 3.47137L25.9172 3.89296L24.9492 4.35552L23.9906 4.82242L23.0518 5.32845L22.123 5.84502L21.2096 6.38644L20.3056 6.95206L19.4271 7.53321L18.5578 8.1392L17.6936 8.76505L16.8547 9.41015L16.0352 10.0708L15.2255 10.7513L14.4364 11.4566L13.6609 12.1768L12.9109 12.9113L12.1664 13.6713L11.4468 14.4406L10.7465 15.2353L10.0616 16.0394L9.39542 16.8689L8.7497 17.7083L8.12943 18.562L7.52345 19.4313L6.93733 20.3154L6.37605 21.2194L5.8396 22.1327L5.31371 23.0616L4.81762 24.0053L4.34016 24.9584L3.88878 25.922L3.45664 26.9005L3.05431 27.8982L2.67184 28.9009L2.30924 29.9186L1.97148 30.9418L1.66352 31.9799L1.38102 33.0274L1.12273 34.0903L0.889278 35.1576L0.68066 36.2305L0.501845 37.3183L0.223688 39.5181L0.118758 40.6301L0.0454932 41.7434L0.00513564 42.8746L-0.00976562 44.0071L0.00513564 45.1396L0.0454932 46.2665L0.118758 47.3791L0.223688 48.4961L0.342898 49.5988L0.501845 50.6909L0.68066 51.7787L0.889278 52.8566L1.12273 53.9239L1.38102 54.9819L1.66352 56.025L1.97148 57.0675L2.30924 58.095L2.67184 59.1083L3.05431 60.1017L3.45664 61.0995L3.88878 62.078L4.34016 63.0466L4.81762 64.0046L5.31371 64.9434L5.8396 65.8716L6.37605 66.7856L6.93733 67.689L7.52345 68.5737L8.12943 69.4423L8.7497 70.2961L9.39542 71.1411L10.0616 71.965L10.7465 72.7641L11.4468 73.5588L12.1664 74.3287L12.9109 75.0936L13.6609 75.8281L14.4364 76.5434L15.2255 77.2531L16.0352 77.9342L16.8547 78.5992L17.6936 79.2443L18.5578 79.8658L19.4271 80.4711L20.3056 81.0573L21.2096 81.6185L22.123 82.1599L23.0518 82.6809L23.9906 83.1782L24.9492 83.6495L25.9172 84.1064L26.9001 84.5379L27.8935 84.9459L28.8912 85.3283L29.9095 85.6853L30.9427 86.0231L31.9758 86.3311L33.0232 86.6142L34.0856 86.8774L35.1479 87.1103L36.2314 87.3145L37.3136 87.4977L38.4107 87.6517L39.5084 87.7765L40.6204 87.8752L41.738 87.9503L42.8655 87.9845L44.0024 88L45.1299 87.9845L46.2568 87.9503L47.3794 87.8752L48.4864 87.7765L49.5941 87.6517L50.6862 87.4977L51.7796 87.3145L52.8469 87.1103L53.9248 86.8774L54.9765 86.6142L56.0252 86.3311L57.0677 86.0231L58.0909 85.6853L59.1036 85.3283L60.1113 84.9459L61.1053 84.5379L62.0832 84.1064L63.0512 83.6495L64.0055 83.1782L64.9486 82.6809L65.8774 82.1599L66.7914 81.6185L67.6898 81.0573L68.5733 80.4711L69.4525 79.8658L70.3019 79.2443L71.1407 78.5992L71.9652 77.9342L72.7699 77.2531L73.559 76.5434L74.3339 75.8281L75.0889 75.0936L75.8284 74.3287L76.5536 73.5588L77.249 72.7641L77.9344 71.965L78.5944 71.1411L79.2401 70.2961L79.8654 69.4423L80.4714 68.5737L81.0525 67.689L81.6188 66.7856L82.1651 65.8716L82.6768 64.9434L83.1784 64.0046L83.6497 63.0466L84.106 62.078L84.5332 61.0995L84.9461 60.1017L85.3236 59.1083L85.6862 58.095L86.019 57.0675L86.3269 56.025L86.6144 54.9819L86.8733 53.9239L87.1105 52.8566L87.3142 51.7787L87.4936 50.6909L87.6476 49.5988L87.7817 48.4961L87.8754 47.3791L87.9456 46.2665L87.9903 45.1396L88.0096 44.0071L87.9903 42.8746L87.9456 41.7434L87.8754 40.6301L87.7817 39.5181L87.6476 38.416L87.4936 37.3183L87.3142 36.2305L87.1105 35.1576L86.8733 34.0903L86.6144 33.0274L86.3269 31.9799L86.019 30.9418L85.6862 29.9186L85.3236 28.9009L84.9461 27.8982L84.5332 26.9005L84.106 25.922L83.6497 24.9584L83.1784 24.0053L82.6768 23.0616L82.1651 22.1327L81.6188 21.2194L81.0525 20.3154L80.4714 19.4313L79.8654 18.562L79.2401 17.7083L78.5944 16.8689L77.9344 16.0394L77.249 15.2353L76.5536 14.4406L75.8284 13.6713L75.0889 12.9113L74.3339 12.1768L73.559 11.4566L72.7699 10.7513L71.9652 10.0708L71.1407 9.41015L70.3019 8.76505L69.4525 8.1392L68.5733 7.53321L67.6898 6.95206L66.7914 6.38644L65.8774 5.84502L64.9486 5.32845L64.0055 4.82242L63.0512 4.35552L62.0832 3.89296L61.1053 3.47137L60.1113 3.06469L59.1036 2.67664L58.0909 2.31466L57.0677 1.98684L56.0252 1.67888L54.9765 1.3852L53.9248 1.12753L52.8469 0.899043L51.7796 0.690425L50.6862 0.506022L49.5941 0.35763L48.4864 0.229107L47.3794 0.129144L46.2568 0.060226L45.1299 0.0149013L44.0024 0ZM43.2821 7.83683L43.3672 9.89693L43.9825 9.87271L44.1514 9.86216L44.3004 9.81807L44.4196 9.74853L44.519 9.63864L44.5984 9.49025L44.6531 9.32136L44.6723 9.11275V8.86874L44.6531 8.63094L44.6139 8.41735L44.5494 8.23357L44.4693 8.08953L44.3799 7.97032L44.2706 7.8865L44.1415 7.83124L43.9974 7.81137L43.2821 7.83683ZM43.9186 12.2265L43.4616 12.2457L43.61 15.9108L42.0857 15.9704L41.6536 5.43213L43.8689 5.34831L44.1272 5.33838L44.3699 5.34831L44.5984 5.38805L44.807 5.44766L45.0008 5.54141L45.1746 5.66124L45.3385 5.80094L45.4819 5.96858L45.6111 6.16292L45.721 6.38147L45.8197 6.6292L45.8998 6.89742L45.9588 7.19607L46.0091 7.51831L46.0383 7.86601L46.0538 8.23854V8.74518L46.0333 9.1916L45.9842 9.59952L45.9091 9.95156L45.8197 10.2546L45.6906 10.5029L45.6167 10.6072L45.5465 10.6966L45.4577 10.7811L45.3683 10.8506L45.4726 10.9046L45.5819 10.9748L45.6713 11.0543L45.7551 11.1586L45.9091 11.4119L46.0383 11.7242L46.1482 12.1017L46.2227 12.5438L46.2723 13.0504L46.2965 13.6216L46.2916 14.0786L46.317 14.7392L46.3667 15.1956L46.4009 15.3396L46.4406 15.429L46.4803 15.4638L46.525 15.4439L46.5406 15.7916L44.9859 15.8512L44.9455 15.6122L44.9064 15.2254L44.8325 14.0233L44.8219 13.5521L44.7822 13.1597L44.7127 12.8312L44.6189 12.5636L44.5537 12.4693L44.4842 12.3798L44.4097 12.3053L44.3302 12.2557L44.2364 12.2265L44.1365 12.211H44.0371L43.9186 12.2265ZM50.2497 72.5455L50.2404 72.5809L50.2249 72.6207L50.215 72.6554L50.2044 72.6902L50.1945 72.72L50.1852 72.7541L50.1802 72.7846L50.1752 72.8187V72.8541L50.1703 72.8889V72.923L50.1752 72.9584V72.9926L50.1802 73.0273L50.1852 73.0677L50.1945 73.0969L50.2044 73.1366L50.215 73.1819L50.2249 73.226L50.2404 73.2713L50.2646 73.3601L50.3044 73.4595L50.3447 73.5638L50.3938 73.683L50.508 73.9462L50.8607 74.9844L50.9203 75.1085L51.0687 75.3768L51.6852 76.8358L51.8038 77.4077L51.3624 77.874L51.322 77.8988L51.2823 77.9236L51.2376 77.9441L51.1984 77.9634L51.1531 77.9839L51.1084 78.0031L51.0147 78.0385L50.97 78.0578L50.9253 78.0776L50.8805 78.0981L50.8402 78.1273L50.8005 78.1527L50.7564 78.1819L50.7359 78.1968L50.7166 78.2124L50.7017 78.2266L50.6812 78.2465L50.7017 78.2862L50.7216 78.326L50.7564 78.4005L50.7961 78.4899L50.816 78.5253L50.8402 78.565L50.8501 78.5849L50.8607 78.5992L50.8706 78.6141L50.8855 78.6296L50.9147 78.6588L50.9302 78.6687L50.97 78.6892L50.9898 78.6979L51.0091 78.7084L51.0345 78.7134L51.0538 78.7184H51.0842L51.1134 78.7233H51.1388L51.1488 78.7339L51.1531 78.7382L51.1581 78.7488L51.1631 78.7581V78.8382L51.168 78.8481L51.173 78.8525L51.178 78.8624L51.258 78.9469L51.2928 78.9419L51.322 78.9369L51.3524 78.927L51.3816 78.9171L51.417 78.9028L51.4412 78.8873L51.471 78.8724L51.4909 78.8581L51.5455 78.8177L51.5952 78.7829L51.62 78.768L51.6498 78.7525L51.6796 78.7432L51.7094 78.7233L52.0578 78.3167L52.077 78.326L52.1068 78.3458L52.1167 78.3564L52.1316 78.3663L52.1416 78.3806L52.1465 78.3955L52.1565 78.421L52.1708 78.4502L52.1813 78.4849L52.1962 78.5197L52.2012 78.5352L52.2111 78.5495L52.4148 79.2598L52.4247 79.3299L52.4346 79.4088L52.4439 79.4883L52.4539 79.5727L52.4644 79.6621L52.4793 79.7615L52.4936 79.8707L52.5141 79.9893L52.4694 80.0347L52.4148 80.0893L52.2558 80.2128L52.0869 80.3817L51.9926 80.4662L51.9081 80.5463L51.8684 80.5959L51.8237 80.635L51.7939 80.6798L51.7591 80.7201L51.7243 80.7592L51.6896 80.799L51.6647 80.8344L51.6399 80.8691L51.62 80.9082L51.6051 80.9387L51.6002 80.9579L51.5952 80.9678V80.9827L51.5902 80.9983V81.0076L51.5952 81.0225V81.0324L51.6002 81.043L51.6051 81.0523L51.6101 81.0622L51.62 81.0722L51.6306 81.0771L51.8839 81.1665L52.7525 81.0976L52.7923 81.1075L53.5969 81.2361L54.0582 81.395L54.5798 81.3006L54.6046 81.2907L54.6351 81.2857L54.6642 81.2758L54.6884 81.2609L54.7139 81.251L54.7394 81.2361L54.7636 81.2212L54.7884 81.2013L54.8381 81.1715L54.9176 81.1119L54.9424 81.0976L54.9623 81.0871L54.9666 81.0479L54.9722 81.0076L54.9821 80.9678L54.9921 80.9337L55.007 80.889L55.0163 80.8486L55.0318 80.8188L55.0517 80.7847L54.8778 79.9943L54.4202 78.8873L54.4109 78.8773L54.4059 78.8674L54.401 78.8624L54.396 78.8525V78.8326L54.401 78.8127L54.4059 78.8034L54.4109 78.7929L54.4165 78.7879L54.4202 78.778L54.4308 78.773H54.4506L54.5003 78.7879L54.5401 78.8034L54.6146 78.8382L54.6543 78.8525L54.6884 78.8674L54.7089 78.8724L54.7487 78.8823H54.7685L55.2299 78.9711L55.2497 79.0015L55.2752 79.0207L55.2951 79.0412L55.3149 79.0568L55.3391 79.0661L55.3596 79.0754L55.3795 79.081L55.4037 79.0859L55.4484 79.0959L55.4739 79.1008L55.4931 79.1058L55.5186 79.1157L55.5384 79.1263L55.5577 79.1406L55.5831 79.1611L56.3431 79.5026L56.3574 79.4932L56.3723 79.4833L56.3828 79.4783L56.3977 79.4734L56.4071 79.4684L56.422 79.4634H56.4319L56.4418 79.4684H56.4524L56.4567 79.4734L56.4766 79.4833L56.4971 79.4988L56.5163 79.5131L56.5412 79.528L56.5617 79.5429L56.5809 79.5572L56.5958 79.5628L56.6057 79.5671H56.6163L56.6306 79.5727H56.6753L56.6902 79.5671L56.7057 79.5628L56.7206 79.5528L56.7647 79.5876L56.7796 79.5976L56.7895 79.6075L56.7945 79.6273L56.8044 79.6423L56.8144 79.677L56.8299 79.7118L56.8342 79.7317L56.8442 79.7466L56.8491 79.7615L56.8591 79.7757L56.8746 79.7913L56.8889 79.8012L56.9038 79.8111L56.9236 79.8217L57.0031 79.7813L57.0776 79.7416L57.2415 79.6621L57.3309 79.6125L57.4154 79.5727L57.4601 79.5479L57.5048 79.5175L57.5495 79.4932L57.6041 79.4634L57.6488 79.4287L57.6929 79.3982L57.7426 79.3641L57.7929 79.3194L57.8425 79.2797L57.8922 79.2443L57.9419 79.1952L57.9965 79.1505L58.0406 79.1008L58.0909 79.0462L58.1406 78.9816L58.1952 78.927L58.2492 78.8624L58.3039 78.7985L58.3492 78.7233L58.4032 78.6538L58.3144 78.6637L58.284 78.6687H58.2244L58.22 78.6637L58.2101 78.6588V78.6346L58.22 78.6141L58.2294 78.5898L58.2449 78.5302L58.2548 78.4949L58.2648 78.4551L58.22 78.47L58.1896 78.4806H58.1847L58.1896 78.4756L58.2101 78.4607L58.2492 78.4402L58.3386 78.3763L58.4678 78.3117L58.6224 78.2266L58.7807 78.1378L58.9347 78.0435L58.7807 77.9193L58.7267 77.8945L58.6615 77.8696L58.5926 77.8398L58.4976 77.8044L58.3982 77.7603L58.3436 77.7448L58.2939 77.7256L58.1747 77.6958L58.1108 77.6803L58.0512 77.666L57.9916 77.6505L57.927 77.6356L57.8519 77.6262L57.7829 77.6163L57.7134 77.6064L57.6488 77.6008H57.4247L57.3558 77.6064L57.2862 77.6163L57.2061 77.6262L57.1664 77.6306L57.1323 77.6405L57.0925 77.6505L57.0627 77.661L57.023 77.6709L56.9882 77.6803L56.9429 77.6958L56.9087 77.7107L56.8442 77.7448L56.7895 77.7852L56.7399 77.8299L56.6952 77.8696L56.6014 77.9441L56.5163 78.0131L56.4766 78.0435L56.4369 78.0776L56.3928 78.1124L56.3431 78.1428L56.2978 78.172L56.2481 78.2024L56.1935 78.2316L56.1388 78.262L54.2122 78.4949L54.1979 78.47L54.1675 78.4502L54.1483 78.4259L54.1278 78.3955L54.1129 78.3713L54.0936 78.3458L54.0781 78.3216L54.0483 78.267L53.8447 77.9038L53.8304 77.8491L53.8049 77.7895L53.7851 77.7349L53.7559 77.6902L53.7304 77.6405L53.7062 77.5915L53.6516 77.4816L53.5969 77.3928L53.5317 77.2934L53.5075 77.2388L53.4827 77.1891L53.4529 77.1345L53.433 77.0848L53.4274 77.0799V77.0699L53.4231 77.065V77.06L53.4274 77.0445V77.0302L53.4374 77.0153L53.4479 77.0004L53.4622 76.9706L53.4827 76.9457L53.4926 76.9308L53.5026 76.901V76.8613L53.4976 76.8563L53.4877 76.8414L53.4771 76.8259L53.4572 76.8017L53.4374 76.7769L53.4125 76.7471L53.4076 76.7315L53.3982 76.7173L53.3883 76.6974L53.3833 76.6825V76.6229L53.3883 76.603L53.5119 76.4639L53.6311 76.3255L53.7354 76.1907L53.8447 76.0672L53.9539 75.9374L54.0483 75.8182L54.1526 75.699L54.2576 75.5804L54.3023 75.5258L54.3563 75.4711L54.4059 75.4165L54.4606 75.3612L54.5208 75.3023L54.5748 75.2476L54.6295 75.2029L54.6841 75.1483L54.7431 75.0986L54.8077 75.0489L54.8728 74.9943L54.9325 74.9446L54.997 74.8993L55.0659 74.8496L55.2106 74.7559L55.6179 74.5572L55.598 74.5218L55.5831 74.4877L55.5527 74.4225L55.5285 74.3591L55.508 74.3132L55.4931 74.289L55.4788 74.2641L55.4639 74.2393L55.4484 74.2145L55.4292 74.1952L55.4037 74.1747L55.3795 74.1549L55.354 74.1306L55.2752 74.1847L55.2056 74.2343L55.1305 74.284L55.0566 74.3237L54.9821 74.3635L54.912 74.4088L54.8437 74.443L54.7636 74.4777L54.6841 74.5125L54.5997 74.5423L54.5208 74.5721L54.4202 74.5963L54.3215 74.6218L54.2222 74.6416L54.1079 74.6665L53.9837 74.6957L53.4274 74.7757L53.3678 74.8403L53.8204 75.2874L53.3982 75.8778L53.035 76.2758L52.9512 76.146L52.8618 76.0175L52.7823 75.8828L52.7122 75.7636L52.6383 75.64L52.5582 75.5152L52.4893 75.391L52.4197 75.2675L52.3601 75.1483L52.2906 75.0291L52.2254 74.9092L52.167 74.7906L52.1068 74.6615L52.0522 74.5473L51.9876 74.4225L51.933 74.3045L51.9181 74.279L51.7541 74.0208L51.7243 73.9816L51.6995 73.9363L51.6697 73.8916L51.6449 73.8419L51.625 73.7972L51.6002 73.7426L51.5555 73.6532L51.5107 73.5588L51.4909 73.5141L51.471 73.4644L51.4462 73.4148L51.417 73.3806L51.3816 73.3359L51.3468 73.2956V73.2763L51.3419 73.2608L51.3319 73.2459L51.327 73.226L51.3077 73.1819L51.2823 73.1273L51.2531 73.0677L51.2177 72.9876L51.1984 72.9435L51.1835 72.8889L51.1631 72.8342L51.1438 72.7641L51.1233 72.5809L51.1084 72.2978L51.0488 72.2581L50.9991 72.2227L50.9799 72.2034L50.9544 72.1935L50.9302 72.1786L50.9104 72.168L50.8855 72.1587L50.8657 72.1488L50.8452 72.1438L50.8209 72.1388H50.7961L50.7613 72.1339L50.7359 72.1289H50.7067L50.6316 72.168L50.5627 72.2177L50.5322 72.2432L50.4981 72.263L50.4627 72.2872L50.4285 72.3127L50.3987 72.3425L50.3689 72.3673L50.3447 72.3915L50.3186 72.422L50.2988 72.4518L50.2795 72.4766L50.2646 72.5064L50.2497 72.5455ZM65.4503 65.3457L65.4403 65.3749L65.4354 65.4053L65.4304 65.4295V65.4898L65.4354 65.5096L65.4403 65.5239L65.4453 65.5438L65.4503 65.5593L65.4546 65.5742L65.4596 65.5835L65.4794 65.614L65.4999 65.6332L65.5397 65.6835L65.5595 65.7133L65.5794 65.7375L65.5838 65.7524L65.5943 65.7679L65.5993 65.7878L65.6042 65.8021L65.6092 65.8219V65.8424L65.6142 65.8617V65.8871L65.6185 65.9014V65.9213L65.6235 65.9368V65.961L65.6185 66.0057V66.0753L65.6235 66.0958V66.115L65.6285 66.1398L65.634 66.1603L65.649 66.1845L65.6781 66.2243L65.6881 66.2646V66.3739L65.6837 66.4087V66.4379L65.6732 66.4975L65.6688 66.5273V66.6067L65.6732 66.6266L65.6781 66.6415L65.6837 66.6564L65.6881 66.6713L65.693 66.6862L65.7036 66.7017L65.7135 66.721L65.7228 66.7359L65.7682 66.8098L65.5887 67.0389L65.5595 67.0234L65.5297 67.0091L65.4751 66.9787L65.4254 66.9445L65.3708 66.9048L65.3155 66.8694L65.2665 66.8352L65.2168 66.7961L65.1721 66.7558L65.0821 66.6763L64.9834 66.5875L64.9337 66.5521L64.884 66.5124L64.8294 66.4782L64.7847 66.4428L64.7592 66.423L64.7549 66.413V66.3882L64.7592 66.3739L64.7648 66.364L64.7747 66.3485L64.7847 66.3385L64.8052 66.3187L64.8238 66.2988L64.8294 66.2889V66.2789L64.8344 66.274V66.2696L64.8294 66.2646V66.2541L64.8188 66.2442L64.4569 65.6332L65.1771 65.1818L65.2069 65.1917L65.241 65.211L65.2715 65.2259L65.3056 65.2464L65.336 65.2706L65.3708 65.2911L65.4254 65.3308L65.4503 65.3457ZM63.2455 66.6316L63.3647 66.9445L63.4144 67.019L64.0943 67.5455L64.1886 67.5803L64.2035 67.5853H64.2234L64.3078 67.5747L64.3525 67.5697L64.3966 67.5648L64.4463 67.5598H64.5264L64.9095 67.4859L65.1963 67.4909L65.3056 67.4009L65.3751 67.4114L65.693 67.6598L65.7228 67.7188L65.7135 67.7436L65.7036 67.769L65.6986 67.7933V67.8138L65.693 67.838L65.6986 67.8684V67.8926L65.7036 67.9181L65.7135 68.0174V68.0869L65.7086 68.1062L65.9315 68.2906L66.1506 69.2281L65.8917 69.4473L65.9172 69.8894L66.0109 69.9341L66.096 69.9732L66.1848 70.0185L66.2295 70.0434L66.2742 70.0632L66.3239 70.0775L66.3686 70.0974L66.4139 70.1129L66.458 70.1278L66.5076 70.1427L66.5523 70.1576L66.607 70.1675L66.6517 70.1775L66.6964 70.1868L66.7461 70.1967L66.7957 70.2017L66.846 70.2073L66.8957 70.2122H67.049L67.0987 70.2073L67.1484 70.2017L67.203 70.1967L67.2577 70.1868L67.3123 70.1775L67.362 70.1626L67.4116 70.147L67.4663 70.1321L67.8189 69.7546L67.7991 69.7304L67.7736 69.6957L67.7494 69.6708L67.719 69.651L67.6948 69.6261L67.6643 69.6013L67.6147 69.5566L67.6047 69.5516L67.5998 69.5466L67.5954 69.5373L67.5905 69.5317L67.5855 69.5168V69.5013L67.5805 69.4771V69.4473L67.5749 69.4423V69.433L67.5706 69.4274L67.5607 69.4225L67.5551 69.4076L67.5451 69.4026L67.5358 69.3976L67.5209 69.3871L67.506 69.3827L67.4905 69.3784L67.4514 69.3684L67.4061 69.3529L67.3365 69.3324L67.3278 69.3188L67.3173 69.3033L67.3123 69.2884L67.3024 69.2486V69.2281L67.2974 69.2089V69.189L67.2924 69.1648L67.2974 69.1139L67.3024 69.0599L67.3073 69.0096L67.3123 68.9506L67.3278 68.8916L67.3415 68.8314L67.357 68.7618L67.3918 68.6284L67.4315 68.4887L67.4458 68.4148L67.4663 68.3396L67.4812 68.2651L67.5004 68.1913L67.5104 68.1112L67.5309 68.0416L67.5408 67.9621L67.5451 67.8876L67.5501 67.8088V67.7045L67.5408 67.63V67.5952L67.5309 67.5505L67.5209 67.5151L67.5104 67.4859L67.506 67.4518L67.4961 67.4164L67.4812 67.3866L67.4514 67.317L67.6544 66.7806L67.7246 66.364L67.7587 66.3689L67.7891 66.3739H67.8935L67.9133 66.3689L67.9326 66.364L67.9481 66.3584L67.968 66.3485L68.0077 66.3336L68.0524 66.3087L68.1064 66.2889L68.1219 66.3044L68.1362 66.3242L68.1617 66.3385L68.1815 66.3534L68.2207 66.3789L68.2554 66.4031L68.2809 66.413L68.3001 66.4286L68.315 66.4428L68.3355 66.4627L68.3498 66.4782L68.3647 66.4975L68.3753 66.5223L68.3796 66.5329L68.3852 66.5471L68.8819 67.4058L68.8912 67.8138L68.8962 67.8535L69.1247 68.5085L69.1296 68.5141L69.1352 68.5191L69.1396 68.5383L69.1501 68.5582V68.588L69.1539 68.6135V68.6377L69.1501 68.6575V68.6625L69.1445 68.6681L69.1352 68.7271L69.2936 69.0748L69.3184 69.0953L69.3283 69.1102L69.3383 69.1195L69.3538 69.1294L69.3724 69.1393L69.383 69.1443L69.4028 69.1493H69.4376L69.4575 69.1443L69.4823 69.1393L69.5022 69.1344L69.5469 69.1195L69.5717 69.1102L69.5916 69.0953L69.6164 69.0897L69.6406 69.0847H69.676L69.6853 69.0897L70.1628 69.04L68.9955 71.1603L68.5187 71.8452L68.5237 71.9104L68.5336 71.9954V72.0395L68.5392 72.0892V72.1339L68.5336 72.168L68.5541 72.1736L68.5733 72.1786L68.5932 72.1835L68.6137 72.1885H68.6876L68.7223 72.1835L68.7577 72.1786L68.7968 72.168L68.8316 72.1587L68.8912 72.1438L68.921 72.1388L68.9558 72.1339H69.0651L69.0856 72.1388H69.1048L69.1843 72.1339L69.4717 71.7713L69.4767 71.7613V71.7564L69.4823 71.7514V71.7315L69.4767 71.7222L69.4717 71.7117L69.4525 71.6912L69.4426 71.6775L69.4184 71.657L69.4028 71.6421L69.378 71.6173L69.3681 71.608L69.3631 71.5925L69.3587 71.5732L69.6562 71.0014L70.6992 69.587L70.8129 69.5168L70.893 69.5764L70.9718 69.6311L71.0364 69.6758L71.091 69.7205L71.1407 69.7652L71.186 69.8L71.2251 69.8347L71.2649 69.8639L71.2947 69.8943L71.3195 69.9186L71.3543 69.9645L71.3946 70.0036L71.4288 70.0477L71.4393 70.1278L71.3946 70.1917L71.3493 70.2513L71.3096 70.3116L71.2649 70.3761L71.1661 70.4954L71.0718 70.6096L70.9817 70.7332L70.8774 70.8524L70.6837 71.0864L70.5794 71.205L70.4807 71.3242L70.3857 71.4435L70.2864 71.5577L70.1926 71.6825L70.1479 71.7464L70.1082 71.806L70.0628 71.8657L70.0187 71.9302L69.974 71.9954L69.9343 72.0594L69.9442 72.0842L69.9536 72.1041L69.9685 72.1184L69.984 72.1388L70.0132 72.168L70.0336 72.1835L70.0485 72.1984L70.0628 72.2133L70.0833 72.2227L70.1032 72.2382L70.1175 72.2432L70.1373 72.2531L70.1578 72.263L70.1827 72.268L70.2075 72.2723L70.7489 71.8508L70.7831 71.8607L70.8129 71.8706L70.8433 71.8855L70.8725 71.9054L70.8979 71.9203L70.9221 71.9402L70.9476 71.96L70.9718 71.9799L71.0122 72.0196L71.0519 72.0594L71.0767 72.0792L71.101 72.0997L71.1264 72.1184L71.1556 72.1339L71.1755 72.1488L71.186 72.1388L71.1953 72.1339L71.2003 72.1239L71.2102 72.1184L71.2208 72.1134L71.2307 72.109L71.2549 72.1041L71.2748 72.0997L71.2947 72.0941H71.3897L71.4089 72.0892H71.4238L71.4443 72.0792L71.4493 72.0743L71.458 72.0693L71.4635 72.0594L71.4735 72.0544L71.856 71.4832L72.2931 70.7586L72.3725 70.093L72.1583 69.705L72.1341 69.6708L72.1093 69.6416L72.054 69.5715L72.0298 69.5411L71.9994 69.5069L71.9652 69.4771L71.9404 69.4473L71.8758 69.3784L71.8063 69.3281L71.7367 69.2685L71.6622 69.2145L71.6026 69.1648L71.5232 69.1102L71.4493 69.0555L71.3692 69.0096L71.2208 68.9158L71.0718 68.8165L71.0811 68.8016L71.091 68.7823L71.096 68.7668L71.101 68.7469L71.1059 68.7327L71.1165 68.7227L71.1214 68.7022L71.1357 68.6867L71.1606 68.6681L71.186 68.6426L71.2102 68.6234L71.2854 68.5483L71.3294 68.4992L71.3642 68.444L71.4039 68.3949L71.4443 68.3396L71.4834 68.285L71.5623 68.1658L71.6026 68.1112L71.6374 68.0615L71.6722 68.0075L71.7175 67.9578L71.7622 67.9081L71.7808 67.8876L71.8063 67.8578L72.1937 67.4859L72.3086 67.2773L72.303 67.2574V67.2326L72.298 67.2127V67.173L72.303 67.1531V67.1326L72.3086 67.1084L72.3272 67.029L72.3477 66.9892L72.3626 66.9495L72.3825 66.9104L72.4073 66.8694L72.4315 66.8402L72.457 66.8005L72.5662 66.6614L72.5805 66.5918L72.5662 66.572L72.5563 66.5521L72.5458 66.5378L72.5364 66.5223L72.5215 66.5074L72.5116 66.4925L72.4967 66.4782L72.4762 66.4627L72.4626 66.4528L72.447 66.4379L72.4172 66.418L72.3825 66.3981L72.3427 66.3789H72.3328L72.3222 66.3739H72.2726L72.2577 66.3826L72.2434 66.3882L72.2136 66.4031L72.1838 66.423L72.1583 66.4286L72.144 66.4335H72.1037L72.0944 66.4286H72.0844L72.0695 66.423L72.0596 66.418L72.0447 66.423L72.0298 66.4286L72.005 66.4428L71.9801 66.4627L71.9652 66.4832L71.9454 66.5024L71.9255 66.5273L71.9106 66.5521L71.8957 66.572L71.856 66.6266L71.8268 66.6763L71.8112 66.7017L71.7914 66.721L71.7715 66.7458L71.7516 66.7607L71.692 66.7905L71.6821 66.7806L71.6678 66.7756L71.6579 66.7657L71.6473 66.7607L71.6374 66.7558L71.6275 66.7514H71.6082L71.5828 66.7458L71.5536 66.7514L71.5331 66.7558L71.5076 66.7607L71.4635 66.7707L71.4393 66.7756L71.4139 66.7806L71.3897 66.7856H71.34L71.3251 66.7806L71.3145 66.7756L71.2903 66.7607L71.2748 66.7961L71.2549 66.8253L71.2307 66.8607L71.2102 66.8849L71.1904 66.9104L71.1661 66.9445L71.1214 66.9942L71.0718 67.0488L71.0519 67.0743L71.0314 67.1035L71.0122 67.1326L70.9917 67.1631L70.9718 67.1922L70.9575 67.2276L70.9178 67.2773L70.7036 67.9969L70.4161 68.4887L70.3615 68.4936H70.3068L70.2572 68.4992L70.2125 68.5085L70.1628 68.5141L70.1224 68.5234L70.0833 68.5383L70.0436 68.5483L69.9939 68.5638L69.9536 68.583L69.9144 68.5979L69.8797 68.6184L69.8399 68.6426L69.7996 68.6681L69.7654 68.6923L69.7257 68.7227L69.7108 68.7178H69.6853L69.671 68.7122L69.6562 68.7072L69.6456 68.6973L69.6313 68.6923L69.6214 68.683L69.6114 68.6731L69.6015 68.6625L69.5916 68.6526L69.5773 68.6327L69.5413 68.5781L69.3134 67.928L69.3227 67.9032L69.3283 67.8833L69.3333 67.8535L69.3383 67.833V67.769L69.3333 67.7492L69.3283 67.7094L69.3184 67.6647L69.3085 67.63L69.2936 67.5902L69.2836 67.5455L69.2737 67.5101L69.2637 67.476L69.2582 67.4561V67.3661L69.2637 67.3462L69.2687 67.327L69.2886 67.2872L69.1048 66.8452L68.9061 66.2889L68.8962 66.2143L68.862 66.1895L68.8223 66.1603L68.7869 66.1299L68.7422 66.1001L68.6727 66.0411L68.6087 65.9759L68.5733 65.9467L68.5392 65.9213L68.5044 65.8915L68.464 65.8667L68.4193 65.8424L68.3796 65.8176L68.3355 65.7971L68.3101 65.7878L68.2908 65.7779L68.271 65.7729L68.2505 65.7679H68.2163L68.171 65.7729H68.1219L68.0723 65.7779H68.0021L67.9773 65.7729L67.958 65.7679L67.9375 65.7574L67.5451 66.0355L67.059 67.4518L67.0391 67.4704L67.0186 67.4859L67.005 67.5052L66.9944 67.5257L66.9646 67.5803L66.9348 67.6244L66.9199 67.6498L66.9007 67.6691L66.8851 67.689L66.8653 67.7094L66.846 67.7287L66.8255 67.7436L66.8007 67.7591L66.7709 67.7734L66.7262 67.7392L66.7014 67.6945L66.6616 67.6051L66.6417 67.5505L66.6225 67.5008L66.5778 67.4009L66.5623 67.3462L66.5474 67.2916L66.5325 67.2326L66.5232 67.1786L66.5076 67.1233L66.4878 67.0041L66.4778 66.9495L66.4729 66.8799L66.4685 66.8253L66.458 66.7607V66.7017L66.453 66.6372L66.4487 66.572V66.3826L66.453 66.3187V66.2541L66.458 66.1945L66.4629 66.1299L66.4685 66.0653L66.4778 65.9958L66.4828 65.9368L66.4927 65.8772L67.0938 65.1067L67.0888 65.0825L67.0838 65.057L67.0789 65.0328V64.9682L67.0838 64.9235V64.8739L67.0789 64.854L67.0739 64.8292L67.0689 64.8192L67.0633 64.8093L67.059 64.7993L67.049 64.7838L67.0391 64.7739L67.0341 64.7652L67.0087 64.7397L66.9845 64.6851L67.352 64.2083L67.719 64.1785L68.171 63.1608L68.1666 63.1403L68.1617 63.1254V63.1062L68.1561 63.0857V63.0466L68.1511 63.0062V62.9373L68.1412 62.9218V62.9069L68.1362 62.8876L68.1319 62.8777L68.1219 62.8572L68.1064 62.838L68.0965 62.8231L68.0816 62.8082L68.0623 62.7926L68.0468 62.7784L68.0127 62.7529L67.9773 62.7287L67.9431 62.7039L67.9276 62.6933L67.9133 62.679L67.8978 62.6641L67.8835 62.6436L66.602 62.743L66.2344 62.9323L65.7228 63.1205L65.7086 63.1304L65.693 63.1403L65.6688 63.1658L65.6384 63.19L65.6142 63.2248L65.5943 63.2552L65.5738 63.2844L65.5397 63.344L65.5192 63.3744L65.4999 63.4042L65.4794 63.434L65.4596 63.4589L65.4403 63.4837L65.4105 63.5085L65.3807 63.5383L65.3652 63.5476L65.341 63.5576L65.3261 63.5781L65.3211 63.588L65.3155 63.5973V63.6221L65.3211 63.6321L65.3261 63.6426L65.3311 63.6569L65.341 63.6669L65.3609 63.6774L65.3807 63.6973L65.3907 63.7022L65.4012 63.7116L65.4049 63.7215L65.4105 63.7265V63.7519L65.4049 63.7612L65.4012 63.7662L65.3956 63.7712L65.3006 63.896L65.2069 64.0152L65.1671 64.0698L65.1324 64.1244L65.0877 64.1878L65.0529 64.243L65.0082 64.3026L64.9728 64.3573L64.9387 64.4119L64.9095 64.4715L64.8791 64.5311L64.8294 64.6503L64.8145 64.705L64.6363 64.8739L64.6059 64.8881L64.5761 64.9086L64.5506 64.9235L64.5264 64.9378L64.5115 64.9527L64.4916 64.9732L64.4519 65.0024L64.4171 65.0278L64.3923 65.057L64.3674 65.0924L64.3476 65.1172L64.1489 65.6531L64.1539 65.6686L64.1594 65.6785L64.1644 65.6978L64.1694 65.7083L64.1731 65.7183L64.1787 65.7282L64.1886 65.7375L64.1986 65.7474L64.2091 65.7623L64.2277 65.7729L64.2737 65.7921L64.2929 65.807L64.3078 65.8176L64.3277 65.8325L64.3376 65.8375L64.3426 65.8468L64.3476 65.8517L64.3575 65.8716L64.3625 65.8871L64.3674 65.8971V65.9312L64.3625 65.961L64.3525 65.9914L64.3426 66.0256L64.332 66.056L64.3178 66.0802L64.3029 66.1057L64.283 66.1299L64.2631 66.1554L64.2433 66.1796L64.2234 66.2001L64.2035 66.2243L64.1787 66.2442L64.1539 66.2597L64.1241 66.2789L64.0644 66.3242L63.5032 65.8822L63.384 65.7921L63.3548 65.8269L63.3244 65.8567L63.2747 65.9213L63.2505 65.9467L63.2256 65.9759L63.2151 65.9914L63.2051 66.0107L63.2008 66.0256L63.1958 66.0461L63.1859 66.0604V66.0753L63.176 66.0908V66.1448L63.1859 66.1796L63.1909 66.2143L63.2008 66.2442L63.22 66.3242L63.23 66.3584L63.2405 66.4335V66.4478L63.2455 66.4677L63.2405 66.4832V66.5024L63.2356 66.5173V66.5329L63.2256 66.5521L63.22 66.562L63.2101 66.5769L63.2008 66.5918L63.2455 66.6316ZM31.9355 77.5666H31.9212L31.9063 77.5617H31.8907L31.8752 77.5517L31.8665 77.5468L31.8566 77.5362L31.846 77.5263L31.8411 77.5176L31.8361 77.5021L31.8262 77.4921L31.8212 77.4716V77.4319L31.8262 77.422L31.8361 77.4133L31.8411 77.3977L31.846 77.3878L31.851 77.3773L31.8609 77.3624L31.8665 77.353L31.8752 77.3481L31.8858 77.3381L31.8957 77.3332L31.9112 77.3276L31.9212 77.3232H31.9404L31.9553 77.3276L31.9708 77.3332L31.9851 77.3431L32 77.353L32.0149 77.3481L32.0255 77.3431L32.0348 77.3381L32.0447 77.3332V77.3232L32.0497 77.3127V77.2984L32.0547 77.2835V77.2736L32.0596 77.2686L32.0646 77.263L32.0751 77.2531L32.0894 77.2487H32.1043L32.1689 77.2438L32.1795 77.2531L32.1888 77.2686L32.1937 77.2779L32.1981 77.2934L32.2037 77.3077V77.3177L32.2086 77.3276V77.3928L32.1981 77.417L32.1937 77.4375L32.1795 77.4574L32.1689 77.4816L32.149 77.512L32.1093 77.5517L32.0845 77.5716L32.0646 77.5915L32.0398 77.6113L31.9355 77.5666ZM35.9085 73.7426L35.9135 73.7525L35.9184 73.768L35.9234 73.7774L35.9284 73.7873L35.9333 73.8022L35.9383 73.8177V73.8419L35.9426 73.8773L35.9383 73.9065L35.9333 73.9363L35.9184 73.9816L35.9085 73.9909L35.9029 74.0009L35.893 74.0158L35.8837 74.0263L35.8737 74.0363L35.8582 74.0506L35.8483 74.0605L35.834 74.0655L35.8185 74.0804L35.8042 74.0859L35.7887 74.0909H35.7744L35.7595 74.0953H35.7396L35.7247 74.0909L35.1237 74.4976L35.0883 74.5175L35.0542 74.5317L35.0293 74.5423L34.9946 74.5522L34.9648 74.5572L34.9294 74.5622L34.8747 74.5764L34.8455 74.582L34.8164 74.592L34.7909 74.6019L34.7617 74.6118L34.7363 74.6218L34.7108 74.636L34.6866 74.6565L34.6562 74.6863L34.6065 74.731L34.3538 74.6218V74.5622L34.3588 74.5317L34.3637 74.5075L34.3737 74.4777L34.3842 74.4529L34.3985 74.4281L34.4084 74.4032L34.4339 74.3486L34.4631 74.3045L34.473 74.279L34.4836 74.2536L34.4935 74.2244L34.4978 74.1989L34.9946 73.6234L35.2777 73.3806L35.531 73.1316L35.8737 72.9783L35.888 72.9876L35.8979 72.9982L35.9085 73.0081L35.9135 73.018L35.9234 73.0273L35.9284 73.0373V73.0478L35.9333 73.0571L35.9383 73.077V73.2012L35.9426 73.2217L35.9476 73.236L35.9526 73.2459L35.9582 73.2558L35.9625 73.2658L35.9675 73.2763L35.9731 73.2862L35.983 73.2956L35.9973 73.3005L36.0122 73.3105L36.0277 73.316L36.0172 73.3409L35.9085 73.7426ZM35.8979 72.2928L35.888 72.3127L35.8787 72.327L35.8582 72.3425L35.8433 72.3574L35.829 72.3723L35.8092 72.3866L35.7744 72.412L35.734 72.4412L35.7148 72.4518L35.6999 72.4667L35.6794 72.4816L35.6651 72.5008L35.6502 72.5163L35.6403 72.5455L35.0095 73.0273L34.6065 73.4595L34.324 73.6979L34.3091 73.7084L34.3041 73.7227L34.2942 73.7376L34.2892 73.7525L34.2799 73.7873L34.275 73.8177L34.265 73.8469L34.2495 73.8916L34.2396 73.9065L34.2346 73.9171L34.2253 73.932L33.5547 74.5764L33.5342 74.587L33.52 74.5963L33.5001 74.6069L33.4846 74.6118L33.4504 74.6218L33.4107 74.6311L33.366 74.6416L33.3312 74.6565L33.3113 74.6615L33.2964 74.6714L33.2759 74.682L33.2617 74.6957L32.5116 74.5522L31.5834 74.3933L31.5679 74.433L31.5486 74.4672L31.5083 74.5317L31.494 74.5622L31.4791 74.5963L31.4735 74.6168L31.4685 74.6311L31.4636 74.6516L31.4586 74.6714L31.7765 75.2029L32.0801 75.3364L32.1043 75.3221L32.1242 75.3072L32.154 75.2967L32.1795 75.2874L32.2235 75.2718L32.2682 75.2576L32.3179 75.2427L32.3726 75.2271L32.4322 75.2029L32.4669 75.1924L32.4967 75.1781L32.914 75.1483L32.9338 75.1582L32.9587 75.1632L32.9835 75.1725L33.0083 75.1824L33.0282 75.1924L33.0381 75.2029L33.0524 75.2079L33.058 75.2172L33.0673 75.2271L33.0828 75.2377L33.0878 75.2476L33.0928 75.2625L33.0978 75.2768V75.2967L33.1027 75.3172L33.0978 75.3265V75.3414L33.0928 75.3569V75.3668L33.0828 75.3768L33.0779 75.391L33.0624 75.401L33.0524 75.4115L33.0487 75.4215L33.0332 75.4314L33.0127 75.4457L32.9835 75.4656L32.9537 75.4811L32.9239 75.4904L32.8935 75.5053L32.8388 75.5357L32.8097 75.55L32.7799 75.5605L32.6954 75.6195L32.6159 75.6841L32.4769 75.794L32.3378 75.8983L32.2235 76.0026L32.1093 76.0964L32.005 76.1814L31.8169 76.3497L31.7219 76.4341L31.6275 76.5086L31.5381 76.5881L31.4294 76.667L31.3748 76.7073L31.3195 76.7471L31.2705 76.7868L31.2003 76.8216L31.1407 76.8719L31.0712 76.911L31.0023 76.9557L30.9377 76.9954L30.893 76.9898L30.8526 76.9849H30.8185L30.7837 76.9805L30.7483 76.9849H30.7191L30.6893 76.9898L30.6589 76.9954L30.6297 77.0047L30.5993 77.0103L30.5701 77.0202L30.5403 77.0302L30.4851 77.0501L30.4304 77.0699L30.4211 77.0941L30.4161 77.1146L30.4062 77.1295L30.4012 77.1488L30.3913 77.1643L30.3758 77.204L30.3565 77.2338L30.3466 77.2487L30.3416 77.263L30.3317 77.2835L30.3267 77.3034L30.3211 77.3177V77.3624L30.3267 77.3878L30.2522 77.8988V77.9193L30.2473 77.9342L30.2423 77.9485L30.2317 77.9634L30.2175 77.9988L30.1976 78.0279L30.1827 78.0534L30.1628 78.0882L30.1572 78.1031L30.1529 78.1223L30.1479 78.1378L30.143 78.1577L30.133 78.172L30.1231 78.1925L30.1181 78.2124L30.1076 78.2266V78.2571L30.1131 78.262V78.2763L30.1231 78.2862L30.1274 78.2962L30.143 78.3067L30.1777 78.3309L30.2075 78.3458L30.2423 78.3713L30.2771 78.3905L30.3174 78.4054L30.3516 78.4303L30.4161 78.4607L30.5453 78.5197L30.6099 78.5495L30.639 78.565L30.6695 78.5799L30.6937 78.5594L30.7191 78.5396L30.7688 78.5048L30.8079 78.47L30.8483 78.4353L30.888 78.3955L30.9377 78.3607L30.9619 78.3458L30.9874 78.3309L31.0072 78.3167L31.0364 78.2962L31.0619 78.2813L31.0811 78.262L31.1016 78.2465L31.1258 78.2316L31.1457 78.2167L31.1711 78.2074L31.1954 78.1925L31.2258 78.1819L31.25 78.172L31.2804 78.1627L31.3046 78.1577L31.3251 78.1478L31.3543 78.1428L31.3798 78.1378H31.4089L31.4394 78.1323H31.4685L31.494 78.1273H31.5281L31.558 78.1323H31.5884L31.6176 78.1378L31.6424 78.1428L31.6722 78.1478L31.7076 78.1527L31.7368 78.1577L31.7666 78.167L31.7964 78.172L31.8262 78.1819L31.8609 78.1968L31.8907 78.2074L31.9212 78.2217L31.8709 78.3067L31.8169 78.3856L31.7219 78.565L31.6772 78.6538L31.638 78.7382L31.602 78.8227L31.5679 78.9077L31.5337 78.9866L31.4977 79.0717L31.4394 79.2256L31.3891 79.3691L31.3394 79.4988L31.3301 79.5479L31.3152 79.5876L31.3102 79.6323L31.3046 79.677L31.2997 79.7118L31.2947 79.7515V79.7813L31.2997 79.8161V79.8403L31.3102 79.8707V79.8956L31.3195 79.9105L31.3301 79.9353L31.3444 79.9552L31.3543 79.9751L31.3692 79.9943L31.3891 80.0098L31.4089 80.0198L31.4238 80.0347L31.4487 80.044L31.4685 80.0545L31.494 80.0645L31.5182 80.0744L31.5486 80.0794L31.602 80.0936L31.6529 80.1042L31.7119 80.1135L31.7765 80.1241L31.8262 80.0247L31.8858 79.9154L31.9305 79.8217L31.9795 79.7211L32.0304 79.6125L32.0801 79.5175L32.1242 79.4138L32.1739 79.3045L32.2186 79.2101L32.2533 79.1058L32.2931 78.9965L32.3328 78.8972L32.4123 78.6786L32.457 78.5743L32.4918 78.4651L32.5116 78.411L32.6308 78.0578L32.6656 78.0385L32.7004 78.0131L32.7296 77.9938L32.7892 77.9634L32.8146 77.9534L32.8388 77.9441L32.8643 77.9392L32.8742 77.9342L32.8935 77.9292H32.9431L32.9587 77.9342L32.9686 77.9392L32.9835 77.9441L32.9934 77.9485L33.0028 77.9534L33.0232 77.969L33.0431 77.9888L33.0624 78.0031L33.0828 78.023L33.1027 78.0385H33.112L33.1276 78.0435L33.1474 78.0534L33.2114 78.1124L33.2269 78.1527L33.207 78.2266L33.1816 78.2962L33.1667 78.3607L33.1425 78.4303L33.117 78.4949L33.0928 78.565L33.0624 78.624L33.0332 78.6842L32.9736 78.8177L32.909 78.9524L32.8494 79.0959L32.7755 79.2499L34.1452 79.2399L34.1607 79.2443H34.175L34.1899 79.2499L34.2104 79.2548L34.2346 79.2648L34.265 79.2797L34.324 79.3045L34.3488 79.3194L34.3793 79.3343L34.3842 79.3641V79.4187L34.3793 79.4436L34.3737 79.4734L34.3637 79.4988L34.3538 79.523L34.3439 79.5479L34.3346 79.5671L34.319 79.5876L34.2296 79.7366L34.2048 79.7813L34.1949 79.8062L34.1849 79.8254L34.175 79.8509L34.1706 79.8757L34.1657 79.8999L34.1607 79.9154V79.9397L34.1657 79.9651L34.1706 79.9999L34.18 80.0247L34.1899 80.0489L34.2048 80.0744L34.2253 80.1042L34.2445 80.129L34.2346 80.1483L34.2253 80.1688V80.2029L34.2296 80.2085L34.2346 80.2178L34.2445 80.2284L34.2594 80.2383L34.2843 80.2575L34.319 80.283L34.3346 80.2929L34.3488 80.3072L34.3637 80.3172L34.3737 80.3327L34.3637 80.3575L34.3588 80.3867L34.3488 80.4122L34.3439 80.4364L34.3346 80.4562L34.3091 80.5065L34.2892 80.5512L34.2396 80.645L34.2147 80.6947L34.1949 80.7394L34.2104 80.7648L34.2253 80.789L34.2396 80.8089L34.2495 80.8294L34.2545 80.8486L34.265 80.8691L34.27 80.894V80.9877L34.265 81.0125L34.2545 81.0672L34.2445 81.1218V81.1523L34.2495 81.1665L34.2545 81.1864L34.27 81.2212L34.2892 81.2609L34.2992 81.2808L34.3041 81.3006L34.3091 81.3211L34.319 81.3453L34.324 81.3708V81.4254L34.3091 81.4497L34.5674 81.5639L34.6065 81.5298L34.6469 81.4894L34.6667 81.4745L34.6816 81.4652L34.7015 81.4497H34.7214L34.7313 81.4391L34.7512 81.4298L34.771 81.4254L34.7909 81.4205H34.8704L34.8853 81.395L34.9002 81.3708L34.9151 81.3453L34.9399 81.3211L34.9753 81.2758L35.0095 81.2261L35.0244 81.1963L35.0337 81.1715L35.0492 81.1417L35.0641 81.1169L35.0796 81.0821L35.0883 81.0479L35.0982 81.0076L35.1038 80.9678L35.1138 80.9281L35.1187 80.9033V80.8294L35.1138 80.789L35.1088 80.7344L35.1038 80.6847L35.0939 80.6301L35.0796 80.5711L35.138 80.4122L35.1976 80.2433L35.2578 80.0843L35.2926 80.0042L35.3224 79.9204L35.3472 79.8459L35.4168 79.687L35.4565 79.6025L35.4913 79.533L35.536 79.4529L35.5856 79.379L35.6353 79.2995L35.7396 79.3194L35.7744 79.3436L35.7986 79.374L35.8433 79.3945L35.8582 79.3982L35.8787 79.4038L35.888 79.4088H35.893L35.8979 79.4138L35.9085 79.4237L35.9135 79.4343L35.9184 79.4529L35.9284 79.5175L35.9476 79.6168L36.0569 80.2675L36.1612 80.5959L36.4598 80.8089L36.5294 80.8635H36.5387L36.5437 80.8691L36.5486 80.8741L36.5542 80.8784L36.5586 80.894L36.5635 80.9132L36.5685 80.9337V81.0479L36.5741 81.0622L36.584 81.092L36.5884 81.0976V81.1026L36.5933 81.1075L36.6033 81.1119L36.6287 81.1169L36.6529 81.1268L36.6784 81.1318L36.7026 81.1417L36.7473 81.1622L36.7926 81.1864L36.8473 81.2063L36.8715 81.2212L36.897 81.2311L36.9162 81.2361L36.9659 81.246L36.9957 81.251L37.0205 81.2609L37.0304 81.2361L37.0602 81.1963L37.0851 81.1622L37.1149 81.1318L37.1745 81.0125L37.1894 80.9734L37.2043 80.9281L37.2285 80.8393L37.2589 80.7648L37.2745 80.7251L37.2931 80.6847L37.3086 80.645L37.3334 80.6108L37.3136 80.5661L37.3732 80.5065L37.3483 80.486L37.3235 80.4618L37.3036 80.442L37.2887 80.4215L37.2794 80.4022L37.2639 80.3867L37.2589 80.3668L37.249 80.3476L37.2341 80.3122L37.2148 80.2675L37.2093 80.2433L37.1944 80.2178L37.1795 80.1979L37.1596 80.1737V80.0986L37.1546 80.0645L37.1447 80.0347L37.1348 80.0042L37.1248 79.9751L37.1149 79.9397L37.1 79.9154L37.0851 79.8956L37.0702 79.8707L37.0354 79.8161L37.0062 79.7615L36.9659 79.6969L36.946 79.6218L36.9361 79.5827L36.9162 79.523L36.9056 79.4988L36.897 79.4634L36.8765 79.3542L36.8417 79.2648L36.8119 79.1853L36.7771 79.1058L36.7523 79.0313L36.7231 78.9618L36.6883 78.8922L36.6678 78.8525L36.648 78.8127L36.6231 78.768L36.5983 78.7184L35.983 78.3713L36.0625 78.2024L36.137 78.023L36.2258 77.8491L36.2655 77.7548L36.3059 77.6709L36.35 77.5809L36.3947 77.4971L36.4443 77.4077L36.499 77.3177L36.5542 77.2289L36.6033 77.1345L36.6585 77.0501L36.7175 76.9557L36.8715 76.8259L36.8765 76.8172L36.8814 76.8067L36.892 76.7967L36.897 76.7918V76.7868L36.9056 76.7769L36.9162 76.7713L36.941 76.762L36.9808 76.752H37.1348L37.1596 76.7471L37.1745 76.7371L37.2093 76.7471L37.2341 76.752L37.2639 76.757L37.2887 76.762H37.3192L37.3434 76.7675H37.403L37.4725 76.762H37.6414L37.765 76.757L38.1729 76.6875L38.3219 76.4739L38.4957 76.0672L38.5057 76.0417L38.4603 75.6593L38.4256 75.5947L38.3964 75.545L38.3368 75.4358L38.3113 75.3768L38.2921 75.3172L38.2666 75.2427L38.2468 75.1781L38.2325 75.1582L38.2225 75.1334L38.212 75.1135L38.207 75.0936L38.2021 75.0682V74.9943L38.207 74.9738L38.212 74.949L38.2176 74.9297L38.2275 74.9043L38.2325 74.8801L38.2424 74.8552L38.2623 74.8049L38.2871 74.7559L38.3113 74.7062L38.3709 74.6069L38.3964 74.5622L38.4206 74.5125L38.4411 74.4634L38.4461 74.443L38.451 74.4175L38.5299 74.1797L38.4802 74.135L38.4461 74.0953L38.4312 74.0804L38.4107 74.0605L38.3964 74.0506L38.3765 74.04L38.356 74.0307L38.3269 74.0208L38.302 74.0158L38.2722 74.0108L38.2374 74.0058L38.1977 74.0009L38.1033 73.9959L38.1077 73.986V73.9413L38.1033 73.922L38.0977 73.8916L38.0878 73.8618L38.0332 73.6929L37.6414 73.9816L36.8864 75.2526L36.1916 76.1013L36.0569 76.1907L35.9582 76.2106L35.5856 76.1659L35.2926 76.1268L35.074 76.0914L34.9107 76.0672L34.8505 76.0573L34.7959 76.0467L34.7568 76.0368L34.7214 76.0268L34.6922 76.0175L34.6618 76.007L34.6028 75.9821L34.5972 76.007V76.0268L34.5928 76.0417V76.1113L34.5972 76.1268L34.6028 76.1411L34.6065 76.151L34.6171 76.1765L34.632 76.1957L34.6469 76.2156L34.6866 76.2802L34.7015 76.3L34.7065 76.3149L34.7164 76.3348V76.39L34.7065 76.4242L34.7015 76.4391L34.6922 76.4639L34.6767 76.4888L34.6469 76.5434L34.632 76.5782L34.6121 76.603L34.6469 76.6328L34.7065 76.6726L34.7313 76.6924L34.7617 76.7073L34.7959 76.7173L34.8251 76.7272L34.8611 76.7315L34.8952 76.7421L34.9399 76.7471H34.9753L35.015 76.752L35.0883 76.757H35.1684L35.4168 76.7675L35.4366 76.7769L35.4962 76.7967L35.5409 76.8067L35.5707 76.8172L35.5906 76.8259L35.6105 76.8358L35.6248 76.8464L35.6297 76.8514L35.6353 76.8563L35.6403 76.8719L35.6452 76.8762V76.906L35.6353 76.9259L35.6297 76.9352L35.6198 76.9457L35.6055 76.9606L35.5906 76.9755L35.5707 76.9898L35.5459 77.0047L35.5254 77.0153L35.5012 77.0252L35.4813 77.0352L35.4565 77.0445L35.4317 77.0501L35.4062 77.06L35.382 77.065H35.3565L35.3373 77.0699H35.3125L35.2882 77.065H35.2677L34.0756 77.5176L33.3256 77.5617L33.3113 77.5567H33.2964L33.2859 77.5517L33.2815 77.5567H33.2759L33.271 77.5617L33.2617 77.5716L33.2517 77.5809L33.2468 77.5915L33.2362 77.6064L33.2213 77.6356L33.2114 77.6461L33.2021 77.661L33.1921 77.6709L33.1816 77.6803L33.1716 77.6902L33.1617 77.6958H33.1524L33.1474 77.6852L33.1425 77.6759L33.1375 77.6709L33.1325 77.661L33.1226 77.656L33.117 77.6505L33.0978 77.6405L33.0779 77.6356L33.0524 77.6306L33.0332 77.6262H33.0083L32.963 77.6213L32.9431 77.6163L32.9189 77.6113L32.8984 77.6064L32.8792 77.5964L32.8693 77.5915L32.8643 77.5859L32.8544 77.5759L32.8494 77.5716V77.5517L32.8544 77.5362L32.8643 77.5176L32.8693 77.5021L32.8885 77.4574L32.909 77.422L32.9189 77.4077L32.9239 77.3928L32.9338 77.3729V77.353L32.9388 77.3332L32.9338 77.3127V77.3034L32.9289 77.2934V77.2835L32.9239 77.2736L33.117 76.8216L33.2114 76.5987L33.2617 76.4838L33.3113 76.3696L33.366 76.2553L33.425 76.1411L33.4796 76.0219L33.5342 75.9033L33.5889 75.794L33.6541 75.6841L33.7186 75.5655L33.7832 75.4612L33.8323 75.3314L33.8378 75.3072L33.8428 75.2917L33.8478 75.2768L33.8527 75.2625L33.8621 75.2476L33.867 75.2427H33.872L33.8776 75.2321L33.8975 75.2222L33.9117 75.2172L33.9366 75.2079L33.9862 75.1979L34.0117 75.2029H34.0309L34.0465 75.2079L34.0663 75.2129L34.0806 75.2222L34.1061 75.2427L34.1402 75.2526L34.1551 75.2625L34.175 75.2718L34.2147 75.2818L34.3793 75.2526L34.5326 75.2321L34.6922 75.2029L34.7661 75.188L34.8455 75.1675L34.9201 75.1532L35.0045 75.1334L35.074 75.1135L35.1479 75.0881L35.228 75.0632L35.3019 75.039L35.3714 75.0092L35.4466 74.9738L35.9731 74.7757L36.3798 74.3132L36.5635 73.9065L36.5741 73.8817L36.6132 73.3601L36.5685 72.9727H36.5586L36.5542 72.9634L36.5437 72.9584L36.5387 72.9534L36.5337 72.9435L36.5244 72.933L36.5145 72.9137L36.5095 72.8938L36.499 72.8684L36.494 72.8442L36.4841 72.8137L36.4791 72.7591L36.4748 72.7399L36.4698 72.72L36.4598 72.6952L36.4543 72.6753L36.4443 72.6598L36.4394 72.6554L36.4344 72.6455H36.4245L36.4201 72.6356L36.4145 72.6306L36.4102 72.6207V72.6157L36.4052 72.6051V72.5859L36.4102 72.5654L36.4145 72.5511L36.4294 72.5263L36.3847 72.4716L36.3555 72.4617L36.3251 72.4518L36.2959 72.4412L36.2705 72.4319L36.2109 72.3971L36.1469 72.3673L36.1165 72.3524L36.0873 72.3369L36.0569 72.3226L36.0227 72.3127L35.9929 72.3028L35.9625 72.2978L35.9333 72.2928H35.8979ZM17.9717 67.6548L18.0661 67.7541L18.086 67.7833L18.1052 67.8088L18.1307 67.838L18.1505 67.8734L18.1853 67.8976L18.2108 67.928L18.2598 67.9826L18.3151 68.0373L18.3691 68.0869L18.4784 68.1863L18.533 68.231L18.5777 68.2807L18.597 68.3005L18.6174 68.3247L18.6373 68.3502L18.6516 68.3694L18.6671 68.3949L18.682 68.4148L18.6919 68.429L18.7013 68.4539L18.7112 68.4738V68.4992L18.7168 68.5234V68.5433L18.7267 68.5638L18.7317 68.588L18.7367 68.6079V68.6681L18.7317 68.6867L18.7267 68.7022L18.7211 68.7227L18.7112 68.737L18.7062 68.7519L18.6963 68.7724L18.682 68.7873L18.6715 68.8115L18.6417 68.8419L18.6125 68.8761L18.5827 68.9059L18.5479 68.9307L18.5131 68.9605L18.4436 69.0096L18.4088 69.035L18.3834 69.0555L17.5595 69.1393L17.5446 69.1344L17.5346 69.1294H17.5191L17.5104 69.1244L17.4949 69.1195H17.4148L17.3806 69.1244L17.3061 69.1493L17.2918 69.1598L17.2813 69.1648L17.2664 69.1741L17.2565 69.184L17.2422 69.194L17.2316 69.2089L17.2217 69.2182L17.2167 69.2337V69.2437L17.2118 69.2586V69.2735L17.2167 69.2884L17.2217 69.3082L17.2267 69.3231L17.2366 69.343L17.2714 69.3827L17.3061 69.433L17.3409 69.4771L17.3707 69.5218L17.4508 69.6211L17.5346 69.7155L17.719 69.9341L17.8128 70.0434L17.9121 70.1626L17.719 70.3761L17.3906 70.5196L17.3757 70.5301H17.3657L17.3558 70.5351H17.3359L17.321 70.5245L17.3018 70.5146L17.2763 70.5003L17.2565 70.4904L17.2267 70.4854L17.2018 70.4749L17.172 70.4699L17.1571 70.5301L17.1416 70.5897L17.1323 70.6437L17.123 70.704L17.1174 70.7586V70.8033L17.123 70.8232V70.8424L17.1273 70.8629L17.1323 70.8778L17.1174 70.8871L17.0975 70.8971L17.0876 70.9076L17.0733 70.9225L17.0478 70.9467L17.0336 70.9821L17.0187 70.9964L17.0081 71.0063L16.9932 71.0219L16.9789 71.0318L16.9584 71.0368L16.9435 71.0461L16.9144 71.051L16.8889 71.056L16.2686 70.3364L16.2587 70.3314L16.2481 70.3265L16.2432 70.3215L16.2382 70.3265H16.2332L16.2239 70.3314L16.219 70.3414L16.2041 70.3612L16.1885 70.3811L16.1786 70.3911L16.1643 70.4004L16.1544 70.4053L16.1389 70.4103H16.1097L15.7713 69.7745L15.7421 69.7304L15.7067 69.6857L15.667 69.6553L15.6328 69.6162L15.5583 69.5373L15.4838 69.4622L15.454 69.4225L15.4193 69.3827L15.3795 69.343L15.3447 69.3033L15.3149 69.2641L15.2851 69.2182L15.2553 69.1741L15.2355 69.1244L15.215 69.0996L15.2951 69.0648L15.5534 68.6284L15.965 68.4787L15.9954 68.5042L16.0246 68.5191L16.055 68.5334L16.0799 68.5483L16.1047 68.5582L16.124 68.5687L16.1445 68.5737L16.1693 68.5781L16.1885 68.583L16.214 68.588H16.2332L16.2537 68.593L16.2786 68.588H16.3425L16.3829 68.5781L16.4121 68.5737L16.4921 68.5582L16.5269 68.5483L16.566 68.5433H16.6561L16.9088 68.6284L16.9386 68.6575L16.9584 68.678L16.9789 68.6923L16.9982 68.7072L17.0236 68.7178L17.0373 68.7271H17.0832L17.1074 68.7327L17.1323 68.7271H17.1522L17.1776 68.7227L17.2018 68.7178L17.2217 68.7072L17.2515 68.6973L17.2763 68.6867L17.321 68.6625L17.3601 68.6327L17.4402 68.583L17.48 68.5638L17.4949 68.5532L17.5154 68.5483L17.5296 68.5433L17.5446 68.5383H17.5744L17.6042 68.5284L17.6234 68.5191L17.6389 68.5141L17.6538 68.5042L17.6737 68.4936L17.6886 68.4787L17.7085 68.4644L17.7283 68.4495L17.7482 68.434L17.7681 68.4148L17.7873 68.3949L17.8028 68.3744L17.8227 68.3452L17.842 68.3148L17.8575 68.2807L17.8475 68.2353L17.8519 68.2155V68.1559L17.8475 68.1416L17.842 68.1217L17.837 68.1062L17.8326 68.0919L17.8277 68.077L17.8177 68.0615L17.8078 68.0466L17.7836 68.0124L17.7581 67.987L17.7432 67.9727L17.7234 67.9578L17.7085 67.9423L17.6886 67.933L17.6693 67.9181L17.6333 67.8976L17.5893 67.8734L17.5346 67.8479L17.48 67.828L17.4253 67.8138L17.3657 67.7988L17.3465 67.7933L17.331 67.7883L17.2918 67.7833L17.2515 67.7734L17.2018 67.769H17.1571L17.1124 67.7641L17.0236 67.769L16.9193 67.7641H16.8187L16.7653 67.7591L16.72 67.7541L16.6654 67.7436L16.6058 67.7287H16.5468L16.4971 67.7237L16.4518 67.7144L16.417 67.7045L16.3624 67.689L16.3375 67.6846L16.3028 67.679L16.2879 67.6741L16.2736 67.6691L16.2587 67.6598L16.2432 67.6548L16.2332 67.6449L16.219 67.6349L16.1985 67.6144L16.1786 67.5952L16.1594 67.5803L16.1445 67.5648L16.1289 67.5598L16.1097 67.5406H16.1047L16.0892 67.535L16.0799 67.5306H16.0352L16.0153 67.535L15.9855 67.5406L15.9358 67.5598L15.8713 67.5747L15.8365 67.5853L15.8017 67.5952L15.762 67.6002L15.7123 67.6051H15.5975L15.5832 67.6101L15.5633 67.6144L15.5484 67.6244L15.5341 67.6349L15.5136 67.6449L15.4981 67.6548L15.4689 67.6846L15.4286 67.7188L15.3895 67.7541L15.3497 67.7933L15.31 67.838L15.2653 67.8876L15.2255 67.9373L15.1858 67.9919L15.151 68.0466L15.0616 68.1509L14.9822 68.2651L14.7189 68.4539L14.704 68.4738L14.6841 68.4936L14.6494 68.5334L14.6152 68.5687L14.5798 68.6079L14.5606 68.6234L14.545 68.6377L14.5252 68.6575L14.5059 68.6681L14.4805 68.683L14.4563 68.6923L14.4258 68.7022L14.3967 68.7072L14.0235 68.5687L14.0092 68.5582L13.9987 68.5483L13.9838 68.5383L13.9745 68.5284L13.954 68.5085L13.9341 68.4787L13.9049 68.429L13.8844 68.4098L13.8701 68.3843L13.8652 68.3645V68.3502L13.8701 68.3297V68.3055L13.8795 68.2651L13.8894 68.226L13.8993 68.1807L13.9049 68.1366L13.9099 68.1161V68.0615L13.9291 68.0416L13.949 68.0273L13.9745 68.0075L14.0036 67.987L14.0291 67.9621L14.0533 67.9373L14.0788 67.9131L14.103 67.8833L14.1235 67.8535L14.1477 67.8237L14.1626 67.7933L14.1781 67.7641L14.188 67.7343V67.7144L14.193 67.6995V67.6144L14.188 67.6002L14.2123 67.5803L14.2377 67.5598L14.2619 67.5306L14.2874 67.5101L14.2973 67.4959L14.3066 67.4859L14.3215 67.4704L14.3265 67.4561L14.3364 67.4412L14.342 67.4213L14.3464 67.4009L14.352 67.3816L14.3464 67.3617V67.3419L14.342 67.327L14.3321 67.3121L14.3215 67.2966L14.3116 67.2823L14.2973 67.2674L14.2818 67.2574L14.252 67.2227L14.2278 67.1978L14.2123 67.1829L14.2023 67.173L14.188 67.1581L14.1781 67.1382L14.2023 67.083L14.5059 66.8154L14.545 66.8203L14.5606 66.8005L14.5699 66.8253L14.5749 66.8352L14.5848 66.8452L14.5898 66.8557L14.5997 66.8607H14.6053L14.6196 66.865H14.6649L14.6941 66.8557L14.709 66.8501L14.7239 66.8452H14.7586L14.7791 66.8501H14.7841L14.7934 66.8557L14.8033 66.865H14.8133L14.8282 66.8744L14.8431 66.8799L14.858 66.8849L14.8629 66.8899L14.8927 66.8948H15.0169L15.0914 66.8849L15.1566 66.8799L15.1858 66.8744H15.2504L15.2802 66.8799L15.305 66.8899L15.3243 66.8948L15.3497 66.8998H15.5087L15.5341 66.9048H15.5782L15.6024 66.9104L15.6229 66.9147L15.6422 66.9246L15.8862 66.716L15.906 66.6962L15.9855 66.6266L16.0246 66.5875L16.065 66.5571L16.0997 66.5223L16.1289 66.4869L16.1643 66.4478L16.1935 66.4087L16.209 66.418L16.219 66.4335L16.2332 66.4379L16.2432 66.4478L16.2587 66.4528L16.2736 66.4577L16.2879 66.4627H16.2978L16.3183 66.4677H16.3624L16.417 66.4577L16.4673 66.4478H16.5319L16.5418 66.4528H16.5518L16.5611 66.4577L16.571 66.4627L16.576 66.4733L16.5859 66.4832L16.5915 66.4925L16.6014 66.5024V66.5223L16.5965 66.5378L16.5915 66.5471L16.5816 66.5521L16.5561 66.5769L16.5418 66.5918L16.5319 66.6067L16.5213 66.6167L16.5114 66.6415L16.5015 66.6564V66.6664L16.4971 66.6763V66.7061L16.5015 66.716L16.6107 67.1233L16.6362 67.1475L16.6461 67.1581L16.6604 67.168L16.6753 67.173L16.6958 67.1829L16.72 67.1978L16.7455 67.2078L16.7796 67.2177L16.8243 67.2326L16.874 67.2525L17.0031 67.2823L17.0776 67.2966L17.2714 67.3319L17.4949 67.3568L17.9717 67.6548ZM22.6495 63.434L22.6445 63.4384V63.4433L22.6395 63.4483H22.5849L22.57 63.4433L22.5501 63.4384H22.4806L22.4707 63.4433L22.4558 63.4483H22.4452L22.4309 63.4533L22.416 63.4589L22.4011 63.4688L22.3912 63.4787L22.3763 63.493L22.3614 63.5085L22.3409 63.5284L22.3067 63.5334H22.2627L22.2366 63.5284H22.2074L22.1776 63.5129L22.1478 63.5029L22.1186 63.493L22.0832 63.4787L22.054 63.4589L22.0187 63.4384L21.9889 63.4086L21.9541 63.3744L21.9143 63.3341L21.8746 63.2894L21.507 62.8671L21.219 62.6436L19.9132 63.4589L19.8834 63.4483L19.8542 63.434L19.8288 63.4135L19.8046 63.3937L19.7791 63.3694L19.7599 63.344L19.7344 63.3148L19.7102 63.2894L19.6947 63.2602L19.6748 63.2297L19.6599 63.19L19.65 63.1608L19.64 63.136L19.6301 63.1062L19.6202 63.0758L19.6152 63.0466L19.6102 63.0367L19.6053 63.0261V63.0019L19.6102 62.9969V62.987L19.6152 62.982L19.6251 62.9665L19.64 62.9528L19.6599 62.9323V62.8876L19.2675 62.4456L19.2526 62.4406L19.2327 62.4356L19.2185 62.4307H19.2029L19.1781 62.4251H19.0837L19.0595 62.4307L19.0341 62.4356H19.0098L18.9844 62.4456L18.9602 62.4505L18.9353 62.4605L18.9099 62.4654L18.8906 62.4748L18.8652 62.4853L18.8459 62.5002L18.8254 62.5101L18.8012 62.5201L18.7814 62.535L18.7609 62.5548L18.7466 62.5697L18.7317 62.594L18.7168 62.6144L18.7013 62.6337L18.6919 62.6542L18.677 62.7287V62.7684L18.682 62.7883V62.8231L18.677 62.8522L18.6715 62.8926L18.6671 62.9373L18.6566 62.977L18.6466 63.0162L18.6373 63.0565L18.6323 63.0963V63.1857L18.6373 63.2055L18.6417 63.2297L18.6466 63.2502L18.6566 63.2701L18.6671 63.2844L18.682 63.2999L18.6963 63.3198L18.7112 63.3341L18.7317 63.3545L18.831 63.7022L19.1284 64.3722L19.2029 64.4119L19.1781 64.4473L19.1539 64.4815L19.1284 64.5162L19.0937 64.546L19.0645 64.5758L19.0291 64.6056L18.9695 64.6652L18.9006 64.7149L18.841 64.7739L18.7708 64.8292L18.7112 64.8832L18.6069 64.9732L18.5827 64.9875L18.5522 65.0024L18.5231 65.0129L18.4827 65.0229L18.4535 65.0278L18.4188 65.0378L18.3834 65.0421H18.2747L18.2399 65.0378H18.2002L18.1555 65.0278L18.1151 65.0229L18.0754 65.0129L18.0363 65.0024L17.9922 64.998L17.9562 64.9831L17.9171 64.9682L17.8773 64.9527L17.8277 64.9378L17.7873 64.9186L17.7432 64.8987L17.7035 64.8788L17.629 64.8391L17.5446 64.7944L17.4645 64.7447L17.3856 64.695L17.3757 64.6901H17.3657L17.3508 64.6851L17.3465 64.6801L17.331 64.6696L17.321 64.6553L17.3105 64.6404L17.3018 64.6255L17.2918 64.6106L17.2813 64.5907L17.2714 64.5758L17.2664 64.5566L17.2565 64.5361L17.2515 64.5212L17.2422 64.5013V64.4815L17.2118 64.4864L17.1875 64.4914H17.1174L17.0925 64.4864H17.0733L17.0578 64.4815L17.0236 64.4715L16.9882 64.461L16.9584 64.4473L16.9193 64.4367L16.9088 64.456L16.8988 64.4666L16.8839 64.4765L16.8696 64.4864L16.8392 64.5063L16.81 64.5262L16.7945 64.5361L16.7796 64.546L16.7697 64.5603L16.7548 64.5709L16.7504 64.5858L16.7399 64.6007L16.7299 64.6404L16.7399 64.6553L16.7504 64.6696L16.7697 64.6901L16.8001 64.7099L16.8243 64.7348L16.8392 64.7447L16.8498 64.7652L16.8647 64.7739L16.874 64.7894L16.879 64.8043L16.8889 64.8242V64.8639L16.879 64.8937L16.8696 64.9086L16.8591 64.9235L16.8498 64.9378L16.8343 64.9527L16.81 64.9782L16.7796 65.0024L16.7455 65.0229L16.72 65.0477L16.6902 65.0775L16.7107 65.211L16.7144 65.2706L16.72 65.3252V65.4451L16.7144 65.4792L16.7107 65.5096L16.7057 65.5438L16.6958 65.5786L16.7107 65.6686L17.6936 66.2938L17.7035 66.3187L17.7085 66.3385L17.7134 66.364L17.719 66.3882V66.4577L17.7134 66.4832L17.7035 66.5124L17.6985 66.5378L17.6886 66.5571L17.6737 66.5875L17.6588 66.6167L17.6489 66.6515L17.629 66.6813L17.6042 66.7111L17.5893 66.7756L18.0108 67.0687L18.0605 67.0488L18.1052 67.029L18.1505 67.014L18.1952 66.9991L18.2691 66.9787L18.3337 66.9594L18.3983 66.9395L18.4281 66.9296L18.4635 66.9191L18.4982 66.9048L18.533 66.8948L18.5678 66.8744L18.597 66.865L18.7466 66.9743L18.7863 66.9787L19.1142 67.3071L20.3149 67.6995L20.8961 67.6647H20.9458L21.0004 67.6741L21.0408 67.679L21.0706 67.6846L21.1004 67.6945L21.1246 67.7094L21.1451 67.7188L21.1643 67.7287L21.1792 67.7436L21.1947 67.7541L21.2239 67.7784L21.2339 67.7883L21.2494 67.7933L21.2643 67.7988L21.2835 67.8038L21.304 67.8088L21.3233 67.8138H21.3978L21.4425 67.8088H21.5368L21.5567 67.8138L21.5722 67.8187L21.5865 67.8237L21.602 67.8138L21.6114 67.7988L21.6269 67.7933L21.6412 67.7784L21.6765 67.7541L21.7057 67.7343L21.7256 67.7188L21.7411 67.7094L21.7504 67.6995L21.7653 67.6846L21.7709 67.6741L21.7753 67.6647V67.6393L21.7709 67.63L21.7107 67.6002L21.6716 67.5598L21.6318 67.5101L21.5865 67.476L21.5518 67.4313L21.5176 67.3866L21.4822 67.3369L21.4183 67.2475L21.358 67.1581L21.3233 67.1184L21.2537 67.0339L21.1842 66.9544L21.1451 66.9147L20.9861 66.2001V66.1796L20.9812 66.1696L20.9663 66.1554L20.9507 66.1398L20.9365 66.1249L20.9216 66.1107L20.8911 66.0802L20.8768 66.0653L20.8619 66.0511L20.852 66.0355V66.0256L20.8464 66.0206V66.0057L20.852 65.9914V65.9865L20.857 65.9759L20.8619 65.971L20.8719 65.966L20.8818 65.9561L20.8961 65.9517L20.911 65.9418L20.9265 65.9368L20.9458 65.9312H21.0103L21.0457 65.9368L21.0706 65.9467L21.1047 65.9561L21.1351 65.966L21.1693 65.9759L21.1997 65.9865L21.2289 65.9958L21.2593 66.0057H21.304L21.3189 65.9958L21.3282 65.9914L21.3438 65.9865L21.3537 65.9815L21.3686 65.971L21.4977 65.961L21.507 65.9865L21.5226 66.0157L21.5368 66.0411L21.5567 66.0604L21.5722 66.0753L21.5965 66.0908L21.6163 66.1001L21.6368 66.1107L21.6561 66.12L21.6809 66.1249L21.6958 66.1299L21.7206 66.1349L21.7411 66.1398H21.9597L21.9839 66.1448H21.9988L22.0187 66.1498L22.0435 66.1554L22.064 66.1603L22.0832 66.1696L22.0981 66.1746L22.1186 66.1895L22.1329 66.2044L22.1528 66.2193L22.1627 66.2044L22.1826 66.1845L22.1975 66.1796L22.2074 66.1746L22.2229 66.1696H22.2322L22.2422 66.1653H22.2627L22.2825 66.1696L22.3018 66.1746L22.3167 66.1845L22.3366 66.1895L22.3614 66.2001L22.3813 66.2044H22.426L22.4365 66.2001L22.4452 66.1945L22.4607 66.1895L22.4756 66.1845L22.4856 66.1746L22.5005 66.1653H22.5452L22.5501 66.1696L22.5601 66.1746V66.1845L22.57 66.1945L22.575 66.21L22.5799 66.2193L22.5849 66.2243L22.5948 66.2292H22.6296L22.7283 66.1796L22.7439 66.2001L23.4188 66.5329L23.841 66.2143L23.1505 65.4252L22.724 65.1023L22.6495 65.0179L22.6445 64.9732L22.6346 64.9285L22.6296 64.8832V64.8639L22.6246 64.8434V64.7993L22.6296 64.7789V64.7546L22.6395 64.7348L22.6445 64.7149L22.6588 64.695L22.6693 64.6801L22.714 64.6454L22.719 64.6404L22.7283 64.6354L22.7339 64.6305H22.7643L22.7737 64.6404L22.7836 64.6503L22.7935 64.6609L22.8035 64.6696L22.8227 64.6901L22.8382 64.7L22.8432 64.7099L22.8531 64.7149H22.8724L22.8773 64.7099H22.8879L22.9078 64.6851L22.932 64.6609L22.9525 64.6354L22.9816 64.6106L23.0319 64.5603L23.086 64.5162L23.2058 64.4218L23.2548 64.3821L23.3101 64.338L23.3002 64.3175V64.2921L23.2952 64.2735L23.2902 64.253V64.1691L23.2952 64.1437L23.3002 64.1189L23.3045 64.099L23.3101 64.0841L23.3194 64.0698L23.3244 64.0493L23.3349 64.0294L23.3498 64.0152L22.8929 63.7022L22.6495 63.434ZM12.0572 51.0684L11.8839 49.7975L13.2195 49.623L13.3337 49.6044L13.4473 49.5839L13.6864 49.5088L13.7702 49.4697L13.8652 49.42L13.9341 49.3654L13.9987 49.3058L14.0384 49.2561L14.0632 49.1965L14.0788 49.1369L14.0837 49.0779L14.0632 49.0233L14.0341 48.9779L13.9937 48.9283L13.9447 48.8836L13.8701 48.8488L13.7758 48.819L13.6864 48.7898L13.587 48.7743L13.338 48.7643L13.2244 48.7743L13.1002 48.7842L5.5869 49.777L5.40312 48.4222L12.5383 47.4835L12.8767 47.4487L13.2195 47.4232L13.5473 47.4195L13.8652 47.4232L14.1781 47.4537L14.4755 47.4934L14.7537 47.5375L15.012 47.6027L15.2504 47.6772L15.4838 47.7715L15.6825 47.8759L15.8657 47.9795L15.9756 48.0745L16.0743 48.1695L16.1445 48.2583L16.219 48.3626L16.2686 48.4613L16.3183 48.5607L16.3475 48.67L16.3674 48.7792L16.3779 48.8836L16.3729 49.0028L16.3624 49.1127L16.3375 49.2213L16.2879 49.3461L16.2382 49.4554L16.1743 49.569L16.0942 49.6783L16.0004 49.7826L15.8862 49.8869L15.767 49.9813L15.6328 50.0806L15.4888 50.17L15.3348 50.2588L15.1709 50.3488L14.9927 50.4227L14.8182 50.5028L14.6152 50.5674L14.2222 50.6909L13.8006 50.7909L13.3784 50.9002L12.0572 51.0684ZM15.4938 46.4255L5.07095 46.0629L5.12 44.7075L15.5378 45.0701L15.4938 46.4255ZM15.6726 43.4806L5.30812 42.3239L5.45838 41.0473L13.3486 41.9265L13.587 39.8118L16.055 40.0837L15.6726 43.4806ZM15.8607 38.8978L16.2332 37.5915L6.19723 34.741L5.83526 36.0473L15.8607 38.8978ZM16.8591 36.4143L7.43466 31.9452L8.08907 30.5544L14.5749 31.9309L8.75528 29.1642L9.30166 28.0125L18.7267 32.4773L18.0661 33.8674L11.9131 32.6499L17.4104 35.2476L16.8591 36.4143ZM18.1903 25.519L12.9655 20.5687L13.9049 19.5753L19.1235 24.5262L19.3023 24.6753L19.3967 24.7448L19.4916 24.805L19.5854 24.864L19.6847 24.9186L19.8691 24.9932L19.953 25.018L20.0418 25.0428L20.1169 25.0577H20.2659L20.3305 25.0379L20.395 25.023L20.4497 24.9932L20.549 24.928L20.6378 24.8491L20.7775 24.6455L20.8017 24.5908L20.8172 24.5262L20.8321 24.4567L20.8272 24.3779L20.8017 24.2332L20.7527 24.055L20.6682 23.8861L20.5391 23.6967L20.4 23.5235L20.2317 23.3497L15.012 18.3981L15.9607 17.4053L21.1792 22.3562L21.3978 22.5742L21.6163 22.7983L21.81 23.0367L22.0038 23.2745L22.1726 23.5185L22.3216 23.7514L22.4607 23.9954L22.5799 24.2239L22.6544 24.4517L22.724 24.6604L22.7643 24.8696L22.7836 25.0677L22.7935 25.2812L22.7786 25.4849L22.7439 25.678L22.6892 25.8568L22.6197 26.0213L22.5408 26.1747L22.4365 26.3144L22.3216 26.438L22.1975 26.5572L22.064 26.6615L21.9193 26.7658L21.7554 26.8353L21.5822 26.9005L21.3878 26.9501L21.1892 26.9743L20.9663 26.9793L20.7725 26.9644L20.5639 26.9303L20.3547 26.8701L20.1318 26.8006L19.8884 26.7062L19.64 26.5826L19.3917 26.4429L19.1539 26.279L18.8956 26.1151L18.6516 25.922L18.4138 25.7233L18.1903 25.519ZM24.4122 23.6676L25.4354 22.897L21.81 18.0169L26.6672 21.9887L27.9034 21.0698L21.6914 12.6928L20.6682 13.4577L24.5016 18.6316L19.432 14.376L18.1952 15.2893L24.4122 23.6676ZM29.3184 19.6157L30.4757 18.9047L25.038 10.0012L23.8763 10.7066L29.3184 19.6157ZM32.6656 17.9219L27.6898 8.5763L29.08 8.12367L31.9212 13.7557L30.8526 7.53818L32.2235 7.08679L33.8025 17.5438L32.6656 17.9219ZM35.7291 16.6708L34.468 6.3169L38.1977 5.86427L38.4703 8.11933L36.0172 8.41735L36.2314 10.1105L38.4312 9.84726L38.6789 11.9086L36.4748 12.1712L36.7274 14.2524L39.3544 13.9345L39.6276 16.1983L35.7291 16.6708ZM49.4302 12.9511L49.4004 13.1746L49.3805 13.4031L49.3954 13.6117L49.4258 13.7948L49.4699 13.9693L49.4997 14.0488L49.5401 14.1078L49.5997 14.2077L49.663 14.2767L49.7332 14.3363L49.8077 14.381L49.8971 14.4164L49.9716 14.4306L50.1305 14.4654L50.2944 14.476H50.3789L50.4677 14.4611L50.5527 14.4406L50.6316 14.4058L50.7216 14.3518L50.8104 14.2767L50.9004 14.1674L50.9495 14.1034L50.9942 14.0233L51.0345 13.9345L51.0637 13.8253L51.1233 13.6117L51.1438 13.4974L51.1581 13.3931L51.1631 13.1746L51.1531 13.0752L51.1438 12.9759L51.1283 12.8716L51.0991 12.8021L51.0587 12.7325L51.019 12.6729L50.9395 12.5686L50.8402 12.4742L50.7309 12.3854L50.5173 12.2215L50.0715 11.9328L49.8474 11.7944L49.6338 11.6255L49.5345 11.5311L49.4258 11.4311L49.3265 11.3175L49.2364 11.2033L49.1073 11.0344L48.9986 10.855L48.8993 10.647L48.8093 10.4036L48.7795 10.2844L48.7447 10.1353L48.705 9.84229L48.6857 9.51943L48.6808 9.1916L48.6901 8.81907L48.705 8.52166L48.7497 8.22302L48.8192 7.86104L48.8993 7.53818L49.0036 7.22525L49.1179 6.93716L49.2464 6.67391L49.3805 6.45535L49.5295 6.24736L49.6785 6.07413L49.8424 5.92946L50.0113 5.79038L50.1945 5.69104L50.3739 5.61654L50.5527 5.5619L50.7309 5.53706L50.9104 5.52278L51.0941 5.52713L51.2624 5.547L51.4362 5.57183L51.6051 5.6215L51.7796 5.68111L51.9379 5.75127L52.1068 5.85496L52.2508 5.97417L52.4098 6.10828L52.5389 6.28709L52.6432 6.43052L52.7376 6.60499L52.8165 6.79312L52.8916 6.9918L52.9562 7.23519L53.0009 7.49348L53.0257 7.7617L53.035 8.04979L53.0207 8.33229L52.9959 8.62597L52.9258 9.20153L51.6647 9.04259L51.6995 8.78989L51.7094 8.54091L51.7045 8.42729L51.6896 8.31305L51.6697 8.20936L51.6355 8.11374L51.6002 8.04979L51.5604 7.98025L51.5163 7.91071L51.4809 7.86601L51.417 7.80081L51.3419 7.75176L51.2723 7.70706L51.2034 7.67229L51.0538 7.61331L50.9147 7.58785H50.7564L50.6024 7.59778L50.4434 7.64249L50.3689 7.67788L50.2988 7.71203L50.2541 7.72693L50.2199 7.75176L50.1802 7.78715L50.1361 7.83124L50.061 7.96038L50.0014 8.10939L49.9616 8.264L49.9318 8.44219V8.61107L49.9517 8.7694L49.9815 8.88861L50.0312 9.01341L50.1057 9.14193L50.1895 9.2512L50.2696 9.35055L50.3634 9.44057L50.4627 9.50949L50.5527 9.57903L50.7458 9.70383L51.1339 9.92735L51.322 10.0459L51.5107 10.1701L51.6355 10.2546L51.7492 10.344L51.8578 10.4483L51.9677 10.5731L52.0664 10.7016L52.1565 10.8506L52.2459 11.0245L52.3309 11.2176L52.375 11.3672L52.4148 11.5311L52.4495 11.69L52.4793 11.8782L52.5184 12.2457L52.5439 12.6183L52.534 13.0256L52.4936 13.4329L52.4396 13.8302L52.3701 14.232L52.2608 14.625L52.1416 14.9919L52.0025 15.3247L51.923 15.4886L51.8491 15.6327L51.769 15.7674L51.6796 15.8854L51.5902 15.9953L51.4959 16.1039L51.412 16.1983L51.3127 16.2834L51.1283 16.4318L50.965 16.5261L50.8104 16.5913L50.657 16.6404L50.5031 16.6801L50.3447 16.7L50.1895 16.7049L50.0312 16.7L49.8871 16.6801L49.7282 16.6559L49.5891 16.6162L49.4395 16.5758L49.306 16.5168L49.157 16.4373L49.0179 16.343L48.8838 16.2436L48.7497 16.1244L48.6311 15.9704L48.5013 15.7966L48.392 15.6029L48.3033 15.3694L48.2083 15.1012L48.1536 14.8131L48.1039 14.4902L48.0847 14.1674L48.0797 13.8396L48.0946 13.4919L48.1238 13.1398L48.1586 12.7822L49.4302 12.9511ZM53.5522 17.142L54.858 17.5394L59.2079 8.11933L57.8972 7.56798L53.5522 17.142ZM56.9584 19.0935L60.5887 11.7993L59.3718 11.1933L60.395 9.15248L63.975 10.94L62.9624 12.9759L61.7405 12.3699L58.1108 19.6703L56.9584 19.0935ZM60.7967 21.0449L61.8299 21.7956L64.2929 18.4037L69.229 14.2767L68.0574 13.4273L65.2168 16.03L66.8206 12.5289L65.644 11.6745L63.2598 17.6537L60.7967 21.0449ZM74.5121 27.322L74.8803 27.0687L75.0535 26.9396L75.2075 26.8155L75.3621 26.677L75.4857 26.528L75.585 26.3988L75.675 26.2647L75.7489 26.1151L75.7986 25.9611L75.8141 25.9015V25.768L75.7986 25.7134L75.7843 25.6488L75.7588 25.5991L75.7346 25.5495L75.6992 25.5048L75.6545 25.4601L75.5999 25.4197L75.5353 25.3905L75.4707 25.3607L75.4068 25.3309L75.3317 25.311L75.1628 25.2812L74.9747 25.2763L74.771 25.2812L74.5972 25.311L74.4233 25.3458L74.0508 25.4402L73.6633 25.5644L73.2759 25.7183L72.899 25.8723L72.5215 26.0462L72.144 26.2244L71.7765 26.4237L71.4288 26.6273L71.091 26.8403L70.7787 27.0786L70.6396 27.1979L70.5055 27.327L70.3615 27.471L70.2174 27.625L70.1175 27.774L70.0386 27.9181L69.974 28.0621L69.9393 28.1913V28.3204L69.9635 28.4241L70.0187 28.5234L70.0982 28.6135L70.1926 28.6824L70.2572 28.7079L70.3118 28.7321L70.4658 28.7724L70.6247 28.7966L70.8085 28.8016L71.0122 28.7917L71.181 28.7774L71.3592 28.737L71.5436 28.7029L71.7218 28.6526L71.9205 28.5831L72.1093 28.5092L72.4762 28.3353L73.0127 29.4026L72.5712 29.5957L72.1291 29.7801L71.6871 29.9546L71.2549 30.103L71.0364 30.1576L70.8228 30.2073L70.6142 30.2421L70.4161 30.2775L70.2174 30.2961L70.0287 30.3116L69.835 30.3215L69.6562 30.3265L69.4575 30.3017L69.2544 30.2775L69.0651 30.2421L68.8962 30.1918L68.7372 30.1328L68.5783 30.0676L68.4448 29.9838L68.3101 29.9093L68.2008 29.8248L68.0816 29.7255L67.9822 29.6212L67.9084 29.5119L67.8283 29.3977L67.7736 29.2685L67.7444 29.1443L67.7295 29.0003V28.8711L67.7494 28.7321L67.7736 28.5936L67.8233 28.4446L67.8885 28.3006L67.958 28.1509L68.0369 27.9976L68.1412 27.8386L68.2455 27.6846L68.3697 27.5307L68.5044 27.3717L68.6379 27.2233L68.9409 26.9098L69.2737 26.6019L69.4972 26.4237L69.7257 26.2449L69.9635 26.0704L70.2125 25.9015L70.7235 25.5737L71.2599 25.2614L71.856 24.9484L72.3328 24.7107L72.8345 24.5064L73.4703 24.258L74.0408 24.055L74.319 23.9749L74.5972 23.896L74.8753 23.8309L75.1485 23.7719L75.4068 23.7265L75.6651 23.7017L75.9482 23.6825L76.2208 23.6775L76.4642 23.6967L76.5933 23.7172L76.6976 23.7321L76.8963 23.8017L77.0602 23.8911L77.2291 23.9904L77.3576 24.0947L77.5066 24.2481L77.6314 24.412L77.7407 24.5865L77.8252 24.774L77.8599 24.8696L77.8891 24.9683L77.9146 25.0782L77.9295 25.1769L77.9344 25.2868L77.9295 25.4054L77.9195 25.5147L77.899 25.6339L77.8699 25.7482L77.8345 25.8568L77.7898 25.9661L77.7357 26.0909L77.5967 26.3287L77.4228 26.5677L77.3334 26.6919L77.2241 26.8155L76.9752 27.0644L76.702 27.3121L76.4095 27.5462L76.0923 27.7647L75.7588 27.982L75.4118 28.1863L75.0535 28.385L74.5121 27.322ZM70.0628 32.6654L70.4602 33.9668L74.4531 32.73L74.93 34.2791L70.9321 35.5109L71.34 36.8166L81.3015 33.7675L80.8985 32.4468L77.2887 33.5588L76.8112 32.0147L80.4217 30.9027L80.0243 29.6013L70.0628 32.6654ZM71.5828 38.1279L81.9062 36.7527L82.0857 38.1025L71.7467 39.474L71.5828 38.1279ZM72.1788 40.9834L82.5923 41.3354L82.547 42.8746L76.0525 44.1915L82.4973 44.4094L82.4582 45.686L72.0248 45.3377L72.0745 43.8035L78.207 42.4679L72.1291 42.2643L72.1788 40.9834ZM73.356 48.3024L71.9106 47.7765L72.1987 46.351L82.0459 50.2495L81.7777 51.585L71.181 51.3665L71.4735 49.9459L73.0077 50.016L73.356 48.3024ZM75.5111 49.1127L75.3118 50.1104L78.5597 50.2495L75.5111 49.1127ZM68.6329 23.0367L68.4193 22.9821L68.2362 22.8877L68.0623 22.7586L67.9276 22.6046L67.8134 22.4258L67.7444 22.2221L67.7091 22.0185L67.719 21.8006L67.7736 21.582L67.873 21.3926L67.9928 21.2244L68.1561 21.0847L68.3306 20.9754L68.5286 20.9065L68.7372 20.8767L68.9558 20.8866L69.1743 20.9363L69.3631 21.0307L69.527 21.1598L69.671 21.3088L69.7803 21.4926L69.8492 21.6913L69.8797 21.8943L69.8697 22.1228L69.8145 22.3314L69.7257 22.5195L69.5965 22.694L69.4475 22.8281L69.2637 22.943L69.0651 23.0113L68.8564 23.0473L68.6329 23.0367Z"
    fill="#0078D6" />
</svg>