<svg
  xml:space="preserve"
  width="480"
  height="480"
  viewBox="0 0 480 480"
  version="1.1"
  xmlns="http://www.w3.org/2000/svg"
>
    <g>
        <path fill="#011b32" d="M 0,0 H 480 V 480 H 0 Z" />
        <path fill="#2fa2ff" d="M 0,178.116 313.517,479.999 0,480 Z" />
        <path fill="#14528b" d="M 0,331.695 157.282,479.998 0,480 Z" />
        <path fill="#145491" d="M 0,0 102.425,0.067 0,99.667 Z" />
        <path fill="#165b96" d="M 345.263,123.995 469.182,0 H 480 v 258.652 z" />
        <path fill="#ffffff" d="m 263.096,53.729 -39.221,91.513 H 0 V 174.84 H 124.492 L 0.026,447.88 0,480 17.909,480.001 157.018,174.84 h 54.173 l -21.433,50.012 h -54.584 l 28.457,110.11 h 94.21 l 53.307,-61.548 22.282,61.547 H 480 V 305.365 H 354.191 l -20.845,-57.58 63.226,-73.002 H 480 v -29.595 h -96.947 l -61.248,70.716 z m -2.317,80.542 38.828,107.262 -55.287,63.834 h -57.77 l -13.16,-50.92 h 35.883 z" />
    </g>
</svg>
