<svg width="88" height="88" viewBox="0 0 88 88" fill="none" xmlns="http://www.w3.org/2000/svg">
  <path fill-rule="evenodd" clip-rule="evenodd"
    d="M44.0004 0C68.2345 0 88 19.7655 88 44.0007C88 68.2345 68.2345 88 44.0004 88C19.7655 88 0 68.2345 0 44.0007C0 19.7655 19.7655 0 44.0004 0Z"
    fill="#00A0E9" />
  <path fill-rule="evenodd" clip-rule="evenodd"
    d="M43.9993 14.4941C60.2504 14.4941 73.5046 27.7484 73.5046 44.0002C73.5046 60.2511 60.2504 73.5056 43.9993 73.5056C27.7476 73.5056 14.4932 60.2511 14.4932 44.0002C14.4932 27.7484 27.7476 14.4941 43.9993 14.4941Z"
    fill="white" />
  <path fill-rule="evenodd" clip-rule="evenodd"
    d="M5.32648 47.2445C5.33374 47.45 5.6712 47.4895 6.07199 47.6259C6.31246 47.7078 6.55781 47.9268 6.8191 47.9528C8.57015 48.2748 9.0366 47.6046 9.68946 46.2554C10.0768 46.2249 10.4646 46.1942 10.8526 46.1635C11.3647 45.8762 11.6901 45.4491 11.9889 45.0019C11.8833 44.1219 11.9428 43.3316 12.1677 42.6313C12.0469 42.3913 11.926 42.1512 11.8053 41.9111C11.5553 41.9331 11.1288 41.931 10.9014 41.8311C10.7049 42.6962 10.7044 43.0988 10.6365 43.5583C10.9599 44.6331 10.6343 45.2379 9.96786 45.1585C10.0628 44.5036 10.0609 44.0758 9.41901 43.0399C8.85947 43.1147 8.32602 43.0434 7.85077 42.6498C7.36532 42.1079 6.87999 41.5659 6.39455 41.0239C5.53011 41.419 4.87755 42.0635 4.20459 42.7338C2.85275 42.44 1.96004 42.9528 1.58936 43.9209C2.53106 43.8164 3.3619 43.6998 3.84759 44.117C4.3692 45.0526 5.04998 45.7753 5.88919 46.2845C6.62084 45.925 7.39232 45.6827 8.03865 46.4784C7.1259 47.1079 5.59607 46.9938 5.32648 47.2445ZM5.08845 43.4383C5.25049 43.7392 5.56071 43.8857 6.01989 43.878C6.3452 43.8909 6.6705 43.9035 6.99586 43.9165C7.13921 43.6875 7.16584 43.4374 7.07569 43.1663C6.77995 42.8858 6.48439 42.6054 6.1889 42.3249C5.99565 41.9803 5.5287 42.1166 5.16822 42.7077C5.07819 42.9555 5.1783 43.1905 5.08845 43.4383ZM7.55576 44.7538C7.65654 44.6992 7.75732 44.6444 7.85822 44.5897C7.86256 44.4631 7.86708 44.3364 7.87172 44.2098C7.70656 44.2167 7.70467 44.0717 7.53964 44.0784C7.59937 44.2531 7.49603 44.5795 7.55576 44.7538ZM8.3127 44.6437C8.39894 44.5682 8.48531 44.4927 8.57173 44.4171C8.57259 44.208 8.57381 43.9989 8.57485 43.7896C8.48842 43.8653 8.40224 43.9408 8.31582 44.0163C8.31478 44.2256 8.31374 44.4347 8.3127 44.6437Z"
    fill="white" />
  <path fill-rule="evenodd" clip-rule="evenodd"
    d="M9.23793 23.6319C9.22357 23.387 9.30994 23.1634 9.33388 22.8837C9.36051 22.5661 9.33162 22.1905 9.45298 21.9107C9.5868 21.4465 9.96836 21.2731 10.3765 21.2725C10.59 21.2719 10.827 21.3818 11.0235 21.4588C11.8039 22.1813 12.318 23.0553 12.8122 24.0228C13.4256 23.8078 13.7308 23.0773 14.1657 22.5844C14.2979 22.4342 14.7764 21.7532 15.2446 21.584C15.5257 21.4826 15.6978 21.6841 15.8408 22.0537C15.9367 22.3029 15.2162 22.993 15.1787 23.2221C15.7586 23.9031 16.3557 24.2586 16.8213 25.5333C16.5368 26.0188 16.2106 26.6821 15.7395 27.1419C15.4057 27.4675 15.2111 27.8934 14.9534 28.1717C14.4315 27.6557 13.8068 27.4251 13.0794 27.48C12.7693 27.6379 12.4449 27.6524 12.0754 27.2191C11.8746 26.6944 12.544 25.9547 13.0393 25.2584C12.8241 25.2334 12.6092 25.2077 12.3942 25.1827C11.9605 24.6898 11.6632 24.145 11.2312 23.3656C10.9284 23.5989 10.4424 23.4713 10.3545 23.1512C10.274 22.8587 9.85011 23.5055 9.23793 23.6319ZM13.3022 26.8464C13.7482 25.9284 13.9079 25.3256 14.4602 24.7203C15.0369 24.8266 15.3587 25.1253 15.4256 25.6176C14.7665 26.7506 14.0587 27.1606 13.3022 26.8464Z"
    fill="white" />
  <path fill-rule="evenodd" clip-rule="evenodd"
    d="M78.6907 22.9959C77.9053 23.4698 77.0942 23.6384 76.3649 23.9884C75.7071 24.3035 75.0841 24.3976 74.4715 24.2944C74.3011 23.8626 74.171 23.5083 74.2131 23.0154C74.1557 22.5995 73.3293 22.3881 72.7069 22.5567C72.6514 22.6379 73.1064 22.9146 72.9964 23.4381C72.8682 24.0531 73.1021 24.6279 73.4411 24.9956C72.7277 25.1483 72.0534 24.9369 71.384 24.6731C70.2156 24.5216 70.2724 25.0762 73.0233 27.1853C74.0561 27.228 74.9143 27.0442 75.8891 26.7265C76.7656 27.7243 78.0506 29.1299 78.4709 29.2534C78.83 28.9137 78.4733 28.2604 78.491 27.7175C78.1985 27.4455 77.9059 27.2897 77.5492 27.1067C77.151 26.9024 76.6709 26.7406 76.6245 26.3405C77.5168 25.8507 78.4122 25.9013 79.0059 25.2319C79.362 24.83 79.6405 24.3286 79.8103 23.7648C79.5886 23.2518 79.1195 23.6665 78.6907 22.9959ZM73.5907 27.5795C74.3316 28.7172 74.9247 29.8383 74.3713 30.9991C73.9425 31.6575 73.631 31.2105 73.2963 30.9849C73.0288 30.4554 72.6715 29.8895 72.936 29.5354C73.3452 28.9864 73.1577 28.1851 73.5907 27.5795Z"
    fill="white" />
  <path fill-rule="evenodd" clip-rule="evenodd"
    d="M85.4901 41.212C84.7755 40.9194 84.2496 41.2901 83.6486 41.997C83.6596 42.4537 83.7445 42.6799 84.0218 42.746C84.1995 42.7886 84.4353 42.7123 84.6552 42.6828C84.8757 42.6536 85.0815 42.6715 85.2843 42.5789C85.8786 42.3068 86.1913 40.978 85.4901 41.212ZM85.3044 44.5248C85.6837 44.2682 86.1882 44.0802 85.8785 43.434C85.1847 43.1004 84.792 43.5623 84.6393 43.831C84.3657 44.0127 84.6173 44.1278 85.3044 44.5248ZM87.1184 46.1806C85.9158 45.9471 85.3893 45.5669 84.409 45.2847C85.1468 45.8856 85.214 46.5795 85.3435 47.2091C85.9366 47.85 86.2768 48.0341 86.3653 47.7613C87.0531 47.2939 87.5955 46.8065 87.1184 46.1806ZM80.1916 40.7321C80.7175 40.6826 81.4388 40.8242 81.9653 40.7749C83.1875 42.1481 83.4831 43.4919 83.6321 45.9697C83.5044 46.2366 83.0348 46.5776 82.7465 46.5726C82.3012 46.3036 82.2469 46.0653 81.8022 45.7965C81.1047 46.0778 80.1971 45.7139 79.2748 45.4303C78.9053 45.5366 79.0207 46.0181 79.2522 46.5749C79.3823 46.8879 79.6425 47.2309 79.4983 47.536C79.1258 48.3241 78.6457 47.889 78.5993 47.7458C78.3647 47.0323 78.1424 46.2883 78.2511 46.1178C78.0465 46.0688 78.0502 46.1976 77.8205 46.1973C76.7535 46.1954 76.2502 45.8178 76.0835 45.3321C75.4342 44.072 75.4935 43.0683 76.9007 42.7971C77.5915 41.8682 78.198 41.4378 78.6194 42.1031C78.2462 42.5393 78.46 43.4115 78.9407 44.4824C79.6364 44.7184 80.3321 44.9545 81.0271 45.1908C80.9874 44.8226 80.9141 44.0617 80.1494 44.0014C79.3365 43.9374 79.4348 43.3798 79.4678 43.1099C80.7419 42.3102 81.2782 44.664 82.1748 45.136C82.6078 44.5674 82.0422 43.6614 81.0851 42.3663C81.0571 42.3107 80.8958 41.89 80.7822 41.9009C79.9503 41.9807 79.2669 40.8883 80.1916 40.7321ZM77.5646 43.2993C77.6275 43.8872 77.7271 44.467 77.7894 45.0549C77.4803 45.0144 77.3539 44.9342 77.0442 44.8939C76.8689 44.3691 76.7095 43.9832 76.7975 43.82C77.0583 43.3338 77.2501 43.1837 77.5646 43.2993Z"
    fill="white" />
  <path fill-rule="evenodd" clip-rule="evenodd"
    d="M27.0872 5.14889C26.4967 5.95145 26.4726 7.24875 26.7058 8.77081C26.6517 8.93511 25.4343 9.94351 25.2573 10.8511C25.1595 11.3538 25.261 11.9011 25.4911 11.6647C25.8434 11.3471 26.1955 11.0301 26.5479 10.7131C26.7647 11.6146 26.5365 12.5357 26.2172 13.5178C26.3815 14.3625 26.7887 14.3118 27.0283 14.1103C27.5145 13.5825 28.0006 13.0554 28.4868 12.5283C28.6326 12.9327 28.7782 13.3376 28.9238 13.742C28.7256 14.1555 28.4683 13.9881 28.2228 13.9374C28.2334 14.6258 29.1823 14.933 29.6349 14.5714C29.6146 13.6937 29.1015 12.7598 28.6726 11.6903C28.8464 10.7968 29.3353 9.49581 29.4599 8.56193C29.4979 8.27669 29.2206 8.27975 29.2739 8.00612C29.1387 8.18508 28.9224 8.30235 28.9482 8.54666C29.0158 9.19042 28.2631 10.8609 28.0166 10.2697C27.8899 9.9032 27.872 9.49703 27.7453 9.13056C27.6466 8.84533 27.4395 8.59919 27.341 8.31395C27.1379 7.59567 27.3036 6.92137 27.5727 6.2599C27.8125 5.2344 27.9186 4.42756 27.0872 5.14889ZM30.405 3.81311C30.6334 4.50146 30.8022 5.46588 30.9417 6.18721C30.4687 6.43336 29.9939 6.42664 29.5209 6.67339C29.4789 7.09728 29.5757 7.28845 29.7099 7.65064C29.8267 8.11667 29.6068 8.79586 30.022 9.09086C30.1926 9.1153 30.4862 9.01024 30.6567 9.03467C30.2154 9.93863 29.8707 10.2477 30.1891 10.8304C30.2774 11.2518 30.5665 11.3593 30.8927 11.1187C31.3318 10.9892 31.7168 10.7094 32.1555 10.5806C32.2925 12.678 33.6511 13.7004 34.4025 15.1535C34.1966 12.8087 33.9005 10.9208 33.6947 8.57659C34.4527 7.89923 33.9776 6.90244 32.8334 6.90916C32.0013 4.82212 31.0883 3.11865 30.405 3.81311ZM27.4667 11.3007C27.6421 11.2378 27.8246 11.2958 27.8729 11.4302C27.9212 11.5639 27.8177 11.7252 27.6421 11.7881C27.4663 11.8516 27.2841 11.7936 27.2358 11.6592C27.1875 11.5248 27.2912 11.3642 27.4667 11.3007ZM30.4706 8.05987C30.7763 8.20401 31.128 8.16187 31.5262 7.93405C31.4886 7.59506 31.3098 7.49001 30.9085 7.39473C30.454 7.54437 30.2812 7.69096 30.4706 8.05987ZM31.1183 9.85923C31.4241 10.0034 31.5013 9.552 31.8995 9.32418C31.74 8.8038 31.4503 8.99253 31.4378 8.98215C30.9833 9.13179 30.9289 9.49031 31.1183 9.85923Z"
    fill="white" />
  <path fill-rule="evenodd" clip-rule="evenodd"
    d="M56.811 5.889C56.3769 6.38556 55.9739 6.94137 55.602 7.55582C55.4542 8.18492 54.8986 7.90946 54.2843 7.50512C54.1525 7.9968 54.3911 8.36571 54.9304 8.83968C54.6337 9.55857 54.3194 10.3733 53.9891 10.7502C53.8788 10.876 53.767 10.953 53.6532 10.9615C53.0218 11.193 52.6618 11.2156 52.1226 11.1423C52.2465 12.2778 52.0123 12.5398 52.751 12.7523C52.9642 12.5129 53.4591 12.4427 53.6721 12.2039C53.6664 12.5294 53.9476 12.734 53.9418 13.0596C54.2721 13.0315 54.5724 13.1469 54.8229 12.6503C54.8937 12.1104 54.9643 11.5711 55.0352 11.0312C55.8264 10.771 56.7092 10.0496 57.5141 9.01681C57.7568 9.31364 58.0219 9.76562 58.5108 9.98489C58.2103 10.1272 57.9246 10.3569 57.624 10.4998C57.2899 10.4442 57.158 10.4094 56.824 10.3544C56.7773 10.738 56.5138 11.0134 56.4672 11.397C56.9985 11.9565 57.5299 12.5154 58.0612 13.0748C57.3839 13.1267 56.6573 13.0877 56.3112 12.7114C56.0423 12.4182 56.0667 11.8746 56.1145 11.3097C55.6758 11.5277 55.2472 12.5838 55.1234 13.233C56.2035 13.8334 57.4679 14.1016 58.7649 13.991C59.2219 14.2585 58.8987 15.0385 59.3556 15.306C60.228 15.8166 62.2428 15.5076 63.1156 16.0188C63.01 15.8862 63.0637 15.7653 62.8951 15.6633C62.335 15.3249 61.596 14.9994 61.0398 14.5065C60.4257 13.9623 60.1738 13.6154 59.848 13.1982C60.8111 12.3321 61.6284 10.7697 61.1178 10.1913C60.9181 9.96474 60.3644 10.2665 59.7626 10.2518C59.93 9.85419 60.2173 9.38266 60.9745 9.61171C61.3773 9.73386 61.7518 9.28738 62.1402 9.12491C62.3479 8.67355 62.5403 8.13423 62.5342 7.70119C61.6681 8.13606 61.1587 8.40175 60.549 8.36022C61.0738 7.43183 61.0793 6.56819 60.566 5.76929C59.8653 6.73432 59.4025 7.64621 59.3653 8.25822C58.5462 8.94962 58.0886 8.31196 57.3815 8.62652C56.9573 8.81464 56.521 9.19637 55.762 9.60804C55.3913 9.07788 55.6177 8.76516 56.5474 8.26432C57.4133 7.79769 57.6835 6.06185 56.811 5.889ZM58.5706 11.6193C58.9262 11.408 59.3836 11.2284 59.9427 11.0794C60.01 11.678 59.4338 11.8496 59.086 12.5257C58.5242 12.1275 58.2882 11.871 58.5706 11.6193Z"
    fill="white" />
  <path fill-rule="evenodd" clip-rule="evenodd"
    d="M37.2825 77.1757H37.4658L36.6469 80.3903L35.9625 83.385C35.9054 83.6457 35.8768 83.8128 35.8768 83.8863C35.8768 83.9757 35.9217 84.0389 36.0113 84.0757C36.1008 84.1122 36.2395 84.1388 36.4268 84.1549C36.5979 84.1632 36.7733 84.1877 36.9525 84.2283L36.8303 84.5218C36.1296 84.4321 35.5305 84.3873 35.0335 84.3873C34.5364 84.3873 34.0026 84.4321 33.4321 84.5218L33.53 84.2283C34.0109 84.1305 34.347 84.0491 34.5385 83.9839C34.73 83.9187 34.8725 83.7598 34.9663 83.5073C35.06 83.2546 35.1353 83.0265 35.1924 82.8226L35.8403 80.3536C36.052 79.3922 36.158 78.8624 36.158 78.7647C36.158 78.6181 36.0968 78.5447 35.9746 78.5447C35.885 78.5447 35.4898 78.7076 34.789 79.0336L34.6668 78.728C35.4327 78.3694 35.9727 78.1006 36.2862 77.9212C36.6 77.742 36.9321 77.4934 37.2825 77.1757ZM39.028 84.5584L39.1013 84.2039C40.9591 84.1632 42.1734 83.2098 42.7438 81.3438C42.3037 81.7105 41.8515 81.8938 41.387 81.8938C40.9143 81.8938 40.5436 81.7309 40.2748 81.4048C40.0057 81.0789 39.8713 80.6225 39.8713 80.0359C39.8713 79.2455 40.0893 78.5833 40.5253 78.0495C40.9612 77.5159 41.5173 77.2491 42.1938 77.2491C42.7559 77.2491 43.2083 77.4629 43.5505 77.8908C43.8928 78.3186 44.0638 78.8951 44.0638 79.6202C44.0638 80.9078 43.6076 82.0527 42.6949 83.055C41.7822 84.0573 40.5599 84.5584 39.028 84.5584ZM42.8538 80.8792C42.9679 80.2436 43.0249 79.7345 43.0249 79.3513C43.0249 78.781 42.9353 78.343 42.7559 78.0374C42.5767 77.7318 42.3281 77.5789 42.0104 77.5789C41.6598 77.5789 41.3891 77.7726 41.1976 78.1596C41.0061 78.5467 40.9103 79.0866 40.9103 79.7791C40.9103 80.3415 40.9938 80.7549 41.1609 81.0198C41.3279 81.2847 41.5336 81.417 41.7781 81.417C42.0878 81.417 42.4464 81.2378 42.8538 80.8792ZM50.3195 77.0779H50.6497L50.2219 77.9579C50.1648 78.0883 49.9163 78.1536 49.4762 78.1536C48.5146 78.1536 47.9361 78.1738 47.7405 78.2147C47.602 78.5569 47.5327 78.7892 47.5327 78.9114C47.5327 78.9846 47.5653 79.058 47.6306 79.1313C47.6958 79.2047 47.7814 79.2576 47.8873 79.2902C48.3842 79.4696 48.753 79.7201 48.9935 80.0419C49.2338 80.3638 49.3539 80.7774 49.3539 81.2826C49.3539 82.13 49.0179 82.8879 48.3456 83.5561C47.6733 84.2244 46.9297 84.5584 46.1149 84.5584C45.7399 84.5584 45.4629 84.5034 45.2837 84.3933C45.1043 84.2834 45.0148 84.1468 45.0148 83.9839C45.0148 83.8944 45.0514 83.8128 45.1248 83.7396C45.1982 83.666 45.2756 83.6295 45.3569 83.6295C45.4467 83.6295 45.5689 83.6864 45.7238 83.8005C45.9437 83.9718 46.2045 84.0573 46.5061 84.0573C47.0275 84.0573 47.5104 83.8251 47.9545 83.3606C48.3986 82.8961 48.6205 82.3827 48.6205 81.8204C48.6205 81.4456 48.5127 81.1095 48.2966 80.8121C48.0807 80.5146 47.7731 80.2762 47.3738 80.097C47.219 80.0317 47.111 79.9666 47.0498 79.9015C46.9888 79.8363 46.9583 79.7466 46.9583 79.6325C46.9583 79.5103 47.0234 79.2455 47.1539 78.838L47.5572 77.5789C47.7365 77.465 47.9401 77.4079 48.1683 77.4079H49.4517C49.6962 77.4079 49.8775 77.3855 49.9958 77.3407C50.1138 77.2959 50.2219 77.2082 50.3195 77.0779ZM56.6242 77.2368L56.551 77.5912C54.6522 77.6565 53.4382 78.6139 52.9084 80.4637C53.3485 80.097 53.8007 79.9137 54.2652 79.9137C54.7542 79.9137 55.129 80.0847 55.3897 80.427C55.6505 80.7693 55.7809 81.2173 55.7809 81.7715C55.7809 82.5782 55.5608 83.2444 55.1209 83.77C54.6807 84.2955 54.1268 84.5584 53.4585 84.5584C52.8881 84.5584 52.4317 84.3466 52.0894 83.9228C51.7472 83.4991 51.5762 82.9002 51.5762 82.126C51.5762 81.3438 51.7839 80.5655 52.1996 79.7914C52.6151 79.0174 53.2038 78.3978 53.9657 77.9335C54.7277 77.469 55.6138 77.2368 56.6242 77.2368ZM52.7862 80.9282C52.6802 81.5313 52.6274 82.0527 52.6274 82.4926C52.6274 83.0713 52.719 83.5051 52.9023 83.7944C53.0857 84.0838 53.3281 84.2283 53.6295 84.2283C53.9881 84.2283 54.2611 84.0308 54.4486 83.6355C54.6359 83.2404 54.7298 82.7249 54.7298 82.0893C54.7298 81.5352 54.6543 81.1135 54.5035 80.8242C54.3529 80.535 54.143 80.3903 53.8742 80.3903C53.5562 80.3903 53.1936 80.5697 52.7862 80.9282Z"
    fill="white" />
  <path fill-rule="evenodd" clip-rule="evenodd"
    d="M37.2825 77.1757H37.4658L36.6469 80.3903L35.9625 83.385C35.9054 83.6457 35.8768 83.8128 35.8768 83.8863C35.8768 83.9757 35.9217 84.0389 36.0113 84.0757C36.1008 84.1122 36.2395 84.1388 36.4268 84.1549C36.5979 84.1632 36.7733 84.1877 36.9525 84.2283L36.8303 84.5218C36.1296 84.4321 35.5305 84.3873 35.0335 84.3873C34.5364 84.3873 34.0026 84.4321 33.4321 84.5218L33.53 84.2283C34.0109 84.1305 34.347 84.0491 34.5385 83.9839C34.73 83.9187 34.8725 83.7598 34.9663 83.5073C35.06 83.2546 35.1353 83.0265 35.1924 82.8226L35.8403 80.3536C36.052 79.3922 36.158 78.8624 36.158 78.7647C36.158 78.6181 36.0968 78.5447 35.9746 78.5447C35.885 78.5447 35.4898 78.7076 34.789 79.0336L34.6668 78.728C35.4327 78.3694 35.9727 78.1006 36.2862 77.9212C36.6 77.742 36.9321 77.4934 37.2825 77.1757ZM39.028 84.5584L39.1013 84.2039C40.9591 84.1632 42.1734 83.2098 42.7438 81.3438C42.3037 81.7105 41.8515 81.8938 41.387 81.8938C40.9143 81.8938 40.5436 81.7309 40.2748 81.4048C40.0057 81.0789 39.8713 80.6225 39.8713 80.0359C39.8713 79.2455 40.0893 78.5833 40.5253 78.0495C40.9612 77.5159 41.5173 77.2491 42.1938 77.2491C42.7559 77.2491 43.2083 77.4629 43.5505 77.8908C43.8928 78.3186 44.0638 78.8951 44.0638 79.6202C44.0638 80.9078 43.6076 82.0527 42.6949 83.055C41.7822 84.0573 40.5599 84.5584 39.028 84.5584ZM42.8538 80.8792C42.9679 80.2436 43.0249 79.7345 43.0249 79.3513C43.0249 78.781 42.9353 78.343 42.7559 78.0374C42.5767 77.7318 42.3281 77.5789 42.0104 77.5789C41.6598 77.5789 41.3891 77.7726 41.1976 78.1596C41.0061 78.5467 40.9103 79.0866 40.9103 79.7791C40.9103 80.3415 40.9938 80.7549 41.1609 81.0198C41.3279 81.2847 41.5336 81.417 41.7781 81.417C42.0878 81.417 42.4464 81.2378 42.8538 80.8792ZM50.3195 77.0779H50.6497L50.2219 77.9579C50.1648 78.0883 49.9163 78.1536 49.4762 78.1536C48.5146 78.1536 47.9361 78.1738 47.7405 78.2147C47.602 78.5569 47.5327 78.7892 47.5327 78.9114C47.5327 78.9846 47.5653 79.058 47.6306 79.1313C47.6958 79.2047 47.7814 79.2576 47.8873 79.2902C48.3842 79.4696 48.753 79.7201 48.9935 80.0419C49.2338 80.3638 49.3539 80.7774 49.3539 81.2826C49.3539 82.13 49.0179 82.8879 48.3456 83.5561C47.6733 84.2244 46.9297 84.5584 46.1149 84.5584C45.7399 84.5584 45.4629 84.5034 45.2837 84.3933C45.1043 84.2834 45.0148 84.1468 45.0148 83.9839C45.0148 83.8944 45.0514 83.8128 45.1248 83.7396C45.1982 83.666 45.2756 83.6295 45.3569 83.6295C45.4467 83.6295 45.5689 83.6864 45.7238 83.8005C45.9437 83.9718 46.2045 84.0573 46.5061 84.0573C47.0275 84.0573 47.5104 83.8251 47.9545 83.3606C48.3986 82.8961 48.6205 82.3827 48.6205 81.8204C48.6205 81.4456 48.5127 81.1095 48.2966 80.8121C48.0807 80.5146 47.7731 80.2762 47.3738 80.097C47.219 80.0317 47.111 79.9666 47.0498 79.9015C46.9888 79.8363 46.9583 79.7466 46.9583 79.6325C46.9583 79.5103 47.0234 79.2455 47.1539 78.838L47.5572 77.5789C47.7365 77.465 47.9401 77.4079 48.1683 77.4079H49.4517C49.6962 77.4079 49.8775 77.3855 49.9958 77.3407C50.1138 77.2959 50.2219 77.2082 50.3195 77.0779ZM56.6242 77.2368L56.551 77.5912C54.6522 77.6565 53.4382 78.6139 52.9084 80.4637C53.3485 80.097 53.8007 79.9137 54.2652 79.9137C54.7542 79.9137 55.129 80.0847 55.3897 80.427C55.6505 80.7693 55.7809 81.2173 55.7809 81.7715C55.7809 82.5782 55.5608 83.2444 55.1209 83.77C54.6807 84.2955 54.1268 84.5584 53.4585 84.5584C52.8881 84.5584 52.4317 84.3466 52.0894 83.9228C51.7472 83.4991 51.5762 82.9002 51.5762 82.126C51.5762 81.3438 51.7839 80.5655 52.1996 79.7914C52.6151 79.0174 53.2038 78.3978 53.9657 77.9335C54.7277 77.469 55.6138 77.2368 56.6242 77.2368ZM52.7862 80.9282C52.6802 81.5313 52.6274 82.0527 52.6274 82.4926C52.6274 83.0713 52.719 83.5051 52.9023 83.7944C53.0857 84.0838 53.3281 84.2283 53.6295 84.2283C53.9881 84.2283 54.2611 84.0308 54.4486 83.6355C54.6359 83.2404 54.7298 82.7249 54.7298 82.0893C54.7298 81.5352 54.6543 81.1135 54.5035 80.8242C54.3529 80.535 54.143 80.3903 53.8742 80.3903C53.5562 80.3903 53.1936 80.5697 52.7862 80.9282Z"
    stroke="white" stroke-width="0.216" />
  <path fill-rule="evenodd" clip-rule="evenodd"
    d="M30.1976 36.4386C30.1681 36.4711 30.1539 36.3591 30.1326 36.3195C28.7715 33.8094 27.4657 30.9327 27.4518 27.4988C28.785 16.831 47.8119 31.2844 51.2197 34.1009C51.8555 34.0521 52.4912 34.0033 53.127 33.9543C49.845 29.9079 44.3357 25.7703 39.0426 23.8867C29.9813 20.663 21.6923 23.6906 29.2124 37.7689C28.551 44.1514 31.3879 46.4986 35.8146 47.0119C38.8226 49.824 44.1011 55.2578 50.0471 57.6386C58.9064 61.1861 67.8443 59.541 61.6363 45.1046H59.5825C70.7669 66.1234 43.6749 54.8279 38.0153 45.5448C44.3658 41.5973 38.8733 31.1079 31.4131 35.4215C30.9555 35.7078 30.5513 36.0473 30.1976 36.4386Z"
    fill="#F08300" />
  <path fill-rule="evenodd" clip-rule="evenodd"
    d="M38.6036 41.1418C38.6036 40.6335 38.5835 40.1455 38.5459 39.6747C38.5059 39.2065 38.3683 38.7559 38.1354 38.3253C37.5471 37.1535 36.473 36.5652 34.9081 36.5652C32.6375 36.6829 31.4458 38.0122 31.3281 40.556C31.2881 43.1772 32.4824 44.4665 34.9081 44.429C37.0187 44.429 38.173 43.6454 38.3683 42.0805H36.3153C36.1199 42.7465 35.6493 43.0595 34.9081 43.0195C34.007 43.0595 33.5764 42.4336 33.6164 41.1418H38.6036ZM33.6164 39.617C33.6566 38.5605 34.0846 38.0323 34.9081 38.0323C35.8071 38.0323 36.2577 38.5605 36.2577 39.617H33.6164Z"
    fill="white" />
  <path fill-rule="evenodd" clip-rule="evenodd"
    d="M51.8556 44.8944C53.2541 44.8073 53.6762 45.3208 55.0749 45.2332C51.3885 49.5134 42.1582 58.5812 34.4346 58.9207C29.0505 59.157 23.398 55.7759 28.4421 44.6719C29.1416 45.2839 29.2398 45.5199 29.939 46.1319C26.3023 52.1727 27.6362 55.9005 30.2427 57.3465C35.1319 60.0585 47.0735 51.7415 51.8556 44.8944Z"
    fill="#0068B7" />
  <path fill-rule="evenodd" clip-rule="evenodd"
    d="M39.2512 34.0992C38.0415 34.1745 37.6764 33.7304 36.4663 33.8061C38.6514 31.4561 42.9852 27.487 47.8177 24.7542C49.9358 23.5565 52.1504 22.3777 54.3208 22.2116C59.1024 21.8457 65.8724 24.8061 61.4693 34.2917C60.8641 33.7623 60.5337 34.0495 59.9288 33.52C63.3114 27.1893 60.6698 23.3519 57.947 23.3281C52.2786 23.278 43.2207 28.0506 39.2512 34.0992Z"
    fill="#0068B7" />
  <path fill-rule="evenodd" clip-rule="evenodd"
    d="M25.0281 37.2498V41.2906C25.0554 42.1715 24.9479 42.7707 24.7088 43.0917C24.4681 43.4655 24.0413 43.6518 23.4284 43.6518C22.8138 43.6518 22.3751 43.4655 22.1071 43.0917C21.868 42.7707 21.7604 42.1715 21.7878 41.2906V37.2498H20.1865V41.8915C20.2411 43.7318 21.32 44.6793 23.4284 44.7323C25.4822 44.6793 26.5492 43.7318 26.6293 41.8915V37.2498H25.0281Z"
    fill="#0068B7" />
  <path fill-rule="evenodd" clip-rule="evenodd"
    d="M50.0224 39.0769C49.9362 37.4942 49.0117 36.6597 47.2549 36.5718C45.0872 36.6899 43.9584 37.5824 43.8704 39.253C43.8704 40.3368 44.7647 41.0849 46.5517 41.4939C46.6098 41.5238 46.7129 41.5537 46.8591 41.5818C47.8849 41.7881 48.3967 42.1687 48.3967 42.7257C48.3686 43.3988 47.8267 43.7494 46.7711 43.7794C45.8635 43.7212 45.4079 43.2226 45.4079 42.2851H43.651C43.6209 44.072 44.6616 44.9664 46.7711 44.9664C49.0567 44.9083 50.2137 44.0287 50.2437 42.3299C50.2717 41.2163 49.3342 40.468 47.4309 40.0875C47.3128 40.0595 47.2398 40.0444 47.2099 40.0444C46.156 39.8981 45.6572 39.5175 45.7172 38.9006C45.7455 38.2575 46.1861 37.9049 47.0355 37.8468C47.8849 37.8468 48.3236 38.2575 48.3535 39.0769H50.0224Z"
    fill="#0068B7" />
  <path fill-rule="evenodd" clip-rule="evenodd"
    d="M51.9004 38.1114H54.3173V44.8783H56.0762V38.1114H58.493V36.7483H51.9004V38.1114Z" fill="#0068B7" />
  <path fill-rule="evenodd" clip-rule="evenodd"
    d="M67.3262 38.7806C67.2083 37.0629 66.0662 36.1902 63.8991 36.1621C61.7296 36.2442 60.6028 37.5675 60.5146 40.1318C60.5728 42.6402 61.7015 43.9231 63.8991 43.9773C66.0961 43.9494 67.2382 43.1045 67.3262 41.4408H65.4798C65.4511 42.3678 64.9246 42.8444 63.8991 42.8723C62.9316 42.8181 62.4192 41.9034 62.3593 40.1318C62.4192 38.3303 62.9316 37.4033 63.8991 37.3493C64.8947 37.3772 65.4212 37.8537 65.4798 38.7806H67.3262Z"
    fill="#0068B7" />
</svg>